<svg width="24" height="24" viewBox="0 0 24 24" fill="none" xmlns="http://www.w3.org/2000/svg">
<g clip-path="url(#clip0_4265_15846)">
<g clip-path="url(#clip1_4265_15846)">
<g clip-path="url(#clip2_4265_15846)">
<path d="M11.6827 1C10.6291 1.91546 8.97783 2.91145 7.22339 3.8354C5.42172 4.78434 3.55917 5.61603 2.16016 6.11565C2.27355 6.75869 2.65458 7.99231 3.25965 9.44394C3.98189 11.1768 4.97889 13.2462 6.05969 15.2268C7.1405 17.2074 8.30787 19.1023 9.35669 20.4795C9.8811 21.1682 10.3778 21.7273 10.7992 22.0947C11.2206 22.4621 11.5681 22.6 11.6827 22.6C11.7974 22.6 12.1447 22.4621 12.5662 22.0947C12.9877 21.7273 13.4843 21.1682 14.0087 20.4795C15.0575 19.1023 16.2249 17.2074 17.3057 15.2268C18.3865 13.2462 19.3835 11.1768 20.1058 9.44394C20.7108 7.99231 21.0919 6.75869 21.2053 6.11565C19.8062 5.61603 17.9437 4.78434 16.142 3.8354C14.3876 2.91145 12.7363 1.91546 11.6827 1ZM11.6827 3.62828L12.0712 4.07053C12.4935 4.55127 13.6595 5.21849 14.8979 5.77177C16.1364 6.32505 17.4548 6.80648 18.287 7.1223L18.619 7.24833V7.60178C18.619 7.96134 18.5141 8.33835 18.3541 8.81407C18.1942 9.2898 17.9706 9.84541 17.7013 10.4553C17.1626 11.6751 16.4411 13.1095 15.6904 14.4875C14.9397 15.8656 14.1613 17.1846 13.5034 18.1755C13.1744 18.6709 12.8774 19.0831 12.6161 19.3909C12.4855 19.5448 12.3655 19.6725 12.2381 19.7791C12.1108 19.8858 11.9927 20.0059 11.707 20.0193L11.6827 20.0204L11.6584 20.0193C11.3728 20.0059 11.2546 19.8858 11.1273 19.7792C10.9999 19.6726 10.8799 19.5448 10.7493 19.3908C10.4881 19.0831 10.1911 18.6709 9.86206 18.1755C9.20414 17.1846 8.42573 15.8656 7.675 14.4875C6.92427 13.1095 6.20278 11.6751 5.66415 10.4553C5.39484 9.84541 5.17121 9.2898 5.01128 8.81407C4.85134 8.33835 4.74638 7.96134 4.74638 7.60178V7.24827L5.07846 7.1223C5.91065 6.80648 7.22901 6.32505 8.46752 5.77177C9.70591 5.21849 10.872 4.55127 11.2942 4.07053L11.6827 3.62828ZM11.6827 5.11978C10.9783 5.72204 9.95923 6.23061 8.89023 6.70816C7.76666 7.21017 6.65536 7.62499 5.83251 7.9346C5.86737 8.08743 5.91873 8.27704 5.98981 8.4885C6.13444 8.9186 6.34792 9.45158 6.60892 10.0425C7.13075 11.2243 7.84239 12.6407 8.58211 13.9985C9.32183 15.3563 10.0912 16.6581 10.7231 17.6098C11.039 18.0856 11.3224 18.475 11.5377 18.7288C11.5992 18.8012 11.6355 18.8323 11.6827 18.8801C11.7299 18.8323 11.7662 18.8012 11.8277 18.7288C12.0431 18.475 12.3264 18.0856 12.6423 17.6098C13.2742 16.6581 14.0436 15.3563 14.7833 13.9984C15.523 12.6406 16.2347 11.2243 16.7565 10.0425C17.0175 9.45158 17.231 8.9186 17.3756 8.4885C17.4371 8.30655 17.4896 8.12169 17.5329 7.9346C16.7101 7.62499 15.5988 7.21017 14.4752 6.70816C13.4062 6.23061 12.3871 5.72204 11.6827 5.11978Z" fill="white"/>
</g>
</g>
</g>
<defs>
<clipPath id="clip0_4265_15846">
<rect width="24" height="24" fill="white"/>
</clipPath>
<clipPath id="clip1_4265_15846">
<rect width="24" height="24" fill="white"/>
</clipPath>
<clipPath id="clip2_4265_15846">
<rect width="24" height="24" fill="white"/>
</clipPath>
</defs>
</svg>
