<svg width="24" height="24" viewBox="0 0 24 24" fill="none" xmlns="http://www.w3.org/2000/svg">
<g clip-path="url(#clip0_4265_19009)">
<path fill-rule="evenodd" clip-rule="evenodd" d="M13.7892 3.40522C13.3304 3.31708 13.0115 2.8737 13.0115 2.40651C13.0115 1.26099 12.5617 0.996094 12.0069 0.996094C11.4522 0.996094 11.0024 1.26099 11.0024 2.40651C11.0024 2.87296 10.6836 3.31545 10.2254 3.40284C9.48209 3.54462 8.77069 3.77371 8.10288 4.07875C8.06608 4.09556 8.02264 4.07842 8.00685 4.04117C7.55832 2.98285 7.0391 2.90632 6.52655 3.11382C6.014 3.32131 5.70222 3.73426 6.15075 4.79258C6.23963 5.0023 6.1875 5.24966 6.01275 5.39575C5.67949 5.67435 5.36681 5.97579 5.07723 6.29757C4.83959 6.56165 4.45151 6.63382 4.12221 6.50051C3.03936 6.06214 2.61684 6.36686 2.40454 6.8678C2.19223 7.36874 2.27053 7.8762 3.35338 8.31457C3.50914 8.37763 3.5865 8.55788 3.51927 8.71188C3.32393 9.15929 3.16458 9.6253 3.04475 10.1064C2.97705 10.3782 2.72323 10.5643 2.44311 10.5643C1.27104 10.5643 1 11.0039 1 11.5461C1 12.0883 1.27104 12.5278 2.44311 12.5278C2.631 12.5278 2.79178 12.672 2.80471 12.8594C2.86613 13.75 3.05997 14.6051 3.36716 15.4061C3.37197 15.4186 3.36585 15.4327 3.35338 15.4377C2.27053 15.8761 2.19223 16.3835 2.40454 16.8845C2.61684 17.3854 3.03936 17.6901 4.12221 17.2518C4.21928 17.2125 4.33148 17.2442 4.39159 17.33C4.90361 18.0604 5.52287 18.7134 6.2272 19.2672C6.43064 19.4272 6.49335 19.7097 6.39236 19.948C5.94383 21.0063 6.25561 21.4192 6.76815 21.6267C7.2807 21.8342 7.79993 21.7577 8.24846 20.6994C8.29218 20.5962 8.41056 20.545 8.51459 20.5865C9.18671 20.8551 9.89853 21.0484 10.6391 21.1556C10.8494 21.186 11.0024 21.3731 11.0024 21.5857C11.0024 22.7312 11.4522 22.9961 12.0069 22.9961C12.5617 22.9961 13.0115 22.7312 13.0115 21.5857C13.0115 21.3724 13.1648 21.1846 13.3759 21.1537C14.1134 21.0459 14.8224 20.8528 15.4919 20.5848C15.5976 20.5425 15.7179 20.5946 15.7623 20.6994C16.2108 21.7577 16.73 21.8342 17.2426 21.6267C17.7551 21.4192 18.0669 21.0063 17.6184 19.948C17.5163 19.7071 17.5794 19.4215 17.7848 19.2595C18.4848 18.7075 19.1005 18.0574 19.61 17.3307C19.6707 17.2441 19.784 17.2121 19.8821 17.2518C20.9649 17.6901 21.3874 17.3854 21.5997 16.8845C21.812 16.3835 21.7337 15.8761 20.6509 15.4377C20.6374 15.4323 20.6308 15.417 20.636 15.4035C20.9429 14.6025 21.1364 13.7474 21.1976 12.8569C21.2104 12.6706 21.3701 12.5273 21.5569 12.5273C22.7289 12.5273 23 12.0878 23 11.5456C23 11.0034 22.7289 10.5638 21.5569 10.5638C21.2779 10.5638 21.0251 10.3784 20.9577 10.1077C20.7704 9.35496 20.4863 8.63925 20.119 7.97384C20.1151 7.96671 20.1183 7.95776 20.1258 7.95472C21.2087 7.51635 21.287 7.00888 21.0746 6.50794C20.8623 6.007 20.4398 5.70228 19.357 6.14065C19.114 6.23903 18.8311 6.18943 18.6473 6.00251C18.3767 5.72735 18.0884 5.46896 17.7841 5.22908C17.5796 5.06782 17.5167 4.78354 17.6184 4.54373C18.0669 3.48541 17.7551 3.07246 17.2426 2.86497C16.73 2.65747 16.2108 2.734 15.7623 3.79232C15.7184 3.89592 15.5994 3.94739 15.495 3.90554C14.9505 3.68741 14.38 3.51873 13.7892 3.40522ZM14.7033 9.94345C15.6058 9.94345 16.3374 9.32746 16.3374 8.56759C16.3374 7.80773 15.6058 7.19174 14.7033 7.19174C13.8008 7.19174 13.0692 7.80773 13.0692 8.56759C13.0692 9.32746 13.8008 9.94345 14.7033 9.94345ZM9.787 9.10008C9.787 9.84848 9.25808 10.4552 8.60563 10.4552C7.95318 10.4552 7.42427 9.84848 7.42427 9.10008C7.42427 8.35167 7.95318 7.74497 8.60563 7.74497C9.25808 7.74497 9.787 8.35167 9.787 9.10008ZM9.52269 16.0132C10.4877 16.0132 11.27 15.2764 11.27 14.3677C11.27 13.4589 10.4877 12.7222 9.52269 12.7222C8.55769 12.7222 7.7754 13.4589 7.7754 14.3677C7.7754 15.2764 8.55769 16.0132 9.52269 16.0132ZM17.2419 13.4557C16.9767 13.861 16.188 13.8309 15.4804 13.3885C14.7728 12.9461 14.4143 12.2589 14.6796 11.8536C14.9449 11.4483 15.7335 11.4784 16.4411 11.9208C17.1487 12.3633 17.5072 13.0504 17.2419 13.4557ZM14.2017 16.014C14.5845 16.014 14.8949 15.7416 14.8949 15.4056C14.8949 15.0696 14.5845 14.7972 14.2017 14.7972C13.8188 14.7972 13.5084 15.0696 13.5084 15.4056C13.5084 15.7416 13.8188 16.014 14.2017 16.014Z" fill="white"/>
</g>
<defs>
<clipPath id="clip0_4265_19009">
<rect width="24" height="24" fill="white"/>
</clipPath>
</defs>
</svg>
