<svg width="41" height="41" viewBox="0 0 41 41" fill="none" xmlns="http://www.w3.org/2000/svg">
<path d="M33.8537 4.35547L36.0324 6.53417L6.63888 35.9256L4.46009 33.7469L33.8537 4.35547ZM12.685 20.1118C12.6854 18.8593 12.9866 17.6252 13.5634 16.5135C14.1403 15.4017 14.9758 14.4449 15.9997 13.7235C17.0235 13.0021 18.2057 12.5373 19.4467 12.3682C20.6878 12.1991 21.9512 12.3307 23.1308 12.7518L26.9992 8.88338C24.8986 8.21106 22.7055 7.87276 20.5 7.88084C17.9275 7.88786 15.3775 8.35938 12.9726 9.2727C11.7758 9.73214 10.6176 10.2862 9.50888 10.9296C8.42485 11.5619 7.38778 12.2715 6.40572 13.0528C5.48239 13.784 4.60646 14.5731 3.78323 15.4154C3.07169 16.1341 2.39697 16.8884 1.76166 17.6753L1.36414 18.1703L1.01386 18.6398C0.796113 18.9254 0.611167 19.1945 0.46125 19.4133C0.311243 19.6321 0.196176 19.818 0.118098 19.9351L0 20.119L0.118098 20.3029C0.196176 20.421 0.311243 20.611 0.46125 20.8246C0.611167 21.0384 0.796113 21.3126 1.01386 21.5982L1.36414 22.0676L1.76166 22.5627C2.39694 23.3496 3.07163 24.1039 3.78314 24.8226C4.6064 25.6649 5.48236 26.454 6.40572 27.1852C6.83027 27.5221 7.27058 27.8494 7.72663 28.1672L13.1401 22.7538C12.837 21.906 12.683 21.0121 12.685 20.1118H12.685ZM40.883 19.9258C40.8049 19.8067 40.6899 19.6125 40.5398 19.401C40.3899 19.1894 40.205 18.9099 39.9872 18.6223C39.7695 18.3142 39.5188 17.9988 39.2394 17.6537C38.604 16.864 37.9293 16.1066 37.2179 15.3846C36.3949 14.5405 35.5189 13.7497 34.5954 13.0169C34.0868 12.6135 33.564 12.2284 33.0279 11.8623L27.7358 17.1544C28.3182 18.5796 28.4668 20.145 28.1629 21.6543C27.859 23.1636 27.1161 24.5495 26.0275 25.6382C24.9388 26.7268 23.5529 27.4697 22.0436 27.7736C20.5343 28.0775 18.9689 27.9289 17.5437 27.3465L13.6835 31.2067C15.879 31.9526 18.1812 32.3366 20.5 32.3437C23.071 32.3525 25.622 31.8917 28.0274 30.9837C29.2243 30.5262 30.3826 29.9735 31.4911 29.3309C32.5756 28.6993 33.6128 27.9897 34.5943 27.2076C35.5178 26.4748 36.3937 25.684 37.2168 24.84C37.9282 24.1179 38.6029 23.3606 39.2383 22.5709C39.5187 22.2247 39.7684 21.9062 39.9861 21.6022C40.2039 21.3146 40.3888 21.0454 40.5387 20.8236C40.6888 20.6016 40.8038 20.4127 40.8819 20.2986L41 20.1129L40.883 19.9258Z" fill="white"/>
</svg>
