<svg width="20" height="20" viewBox="0 0 20 20" fill="none" xmlns="http://www.w3.org/2000/svg">
<g clip-path="url(#clip0_3630_9766)">
<path fill-rule="evenodd" clip-rule="evenodd" d="M8.42231 2.67219L9.36655 9.21687L9.29462 9.17457L7.8864 10.1461L9.1039 17.2964C7.17243 15.74 1.75977 10.956 1.75977 6.21897C1.75977 2.95028 4.2854 1.7445 5.61347 1.7445C6.80567 1.7445 7.74196 2.17774 8.42231 2.67219ZM10.4184 3.29448L11.5143 10.8905L10.1024 11.8384L10.087 11.8293L10.9484 16.8885C13.1739 15.0154 17.7975 10.5971 17.7975 6.21897C17.7975 2.94992 15.2719 1.7445 13.9438 1.74414C12.2553 1.74414 11.0802 2.61325 10.4184 3.29448Z" fill="#CD6767"/>
</g>
<defs>
<clipPath id="clip0_3630_9766">
<rect width="20" height="20" fill="white"/>
</clipPath>
</defs>
</svg>
