<svg width="70" height="70" viewBox="0 0 70 70" fill="none" xmlns="http://www.w3.org/2000/svg">
<path d="M21.2732 4L17.5028 25.36C13.2108 29.6844 5.25353 31.8123 0 32.659L0.0196561 65.2173L0.0205493 65.217C5.52365 57.3686 13.792 44.8081 23.0393 40.2991C36.1323 39.3709 51.1884 40.4507 63.1391 58.4675L58.6293 41.8242L41.6491 36.7872C47.3425 29.5419 58.9603 33.2265 70 41.1726L60.6165 29.2134L40.7457 27.1897C44.1081 19.6132 56.9257 18.3187 68.344 26.0858L57.3049 14.1267C41.6488 19.7609 30.0693 19.237 28.9651 15.5161C28.603 16.0472 28.2906 16.5867 28.0285 17.1323C26.0249 21.2978 26.713 25.9442 29.7204 30.0502L27.4752 31.6946C23.9795 26.9221 23.0487 21.0652 25.5203 15.9262C27.805 11.1757 32.869 7.18071 40.8967 4.94141L21.2731 4.0003L21.2732 4Z" fill="url(#paint0_radial_3053_4724)"/>
<defs>
<radialGradient id="paint0_radial_3053_4724" cx="0" cy="0" r="1" gradientUnits="userSpaceOnUse" gradientTransform="translate(4.5 45.5) rotate(-26.9853) scale(91.4576 104.579)">
<stop stop-color="#689A60"/>
<stop offset="0.780924" stop-color="#EB6F6F"/>
</radialGradient>
</defs>
</svg>
