<svg width="70" height="70" viewBox="0 0 70 70" fill="none" xmlns="http://www.w3.org/2000/svg">
<path d="M10.5481 0L7.33609 0.765401L7.94811 3.33257L11.1599 2.56717L10.5481 0ZM18.6728 1.40411C17.0875 1.40675 15.8439 1.94165 15.0797 2.92084C14.2644 3.96527 14.0728 5.41528 14.5674 7.0826C15.0618 8.74976 16.2685 10.5498 18.0825 11.9636C19.8966 13.3771 21.9374 14.108 23.6764 14.1813C25.4148 14.2546 26.7755 13.7153 27.5908 12.671C28.406 11.6265 28.5975 10.1766 28.1029 8.50944C28.0517 8.3396 27.9943 8.17166 27.9311 8.00591C26.6422 8.99624 25.7856 10.7288 24.7032 10.0065C24.407 9.80901 25.3198 7.47219 26.6812 5.75722C26.2697 5.20756 25.8078 4.69752 25.3014 4.23375L21.5876 6.01822L19.5794 4.16425C19.8768 3.90838 22.2503 3.50985 24.2041 3.34269C22.49 2.11658 20.6112 1.47875 18.9941 1.41071C18.887 1.40617 18.7797 1.40397 18.6725 1.40411H18.6728ZM38.4992 3.07201L35.4012 4.21425L36.3141 6.69051L39.4124 5.54827L38.4993 3.07201H38.4992ZM46.2605 6.33846L44.2816 8.0848L46.4659 10.5603L48.4451 8.81428L46.2604 6.33831L46.2605 6.33846ZM7.28667 9.96458L5 11.2834L6.64957 14.1435L8.9358 12.825L7.28623 9.96502L7.28667 9.96458ZM30.0933 13.6787C29.9659 13.892 29.8255 14.0973 29.6729 14.2933C28.2433 16.1252 25.9378 16.9173 23.5646 16.8173C22.6888 16.7803 21.7934 16.6274 20.901 16.3633C20.7995 17.6393 20.8039 18.9327 20.8983 20.2303L21.9687 19.7362L22.042 22.212L23.935 22.5764L22.8429 24.7609L25.3913 27.0182L22.9884 27.965L24.2265 29.3484L23.205 30.2942C24.7734 34.543 26.9025 38.4353 28.9238 41.4315C31.3842 45.0792 33.8222 51.7609 33.9247 55.8527L28.4123 69.826L45.0656 70L45.1819 66.9847L44.0709 66.7912L42.2127 68.5979L40.6834 67.2871H39.3725L39.1801 65.9391L36.0599 65.3954L40.2197 56.1124C40.4153 50.6522 38.726 46.8484 37.4748 41.3882C40.0174 43.1312 42.4793 44.8365 44.8385 46.5897C45.3356 46.1267 45.9749 45.7584 47.0189 45.6598C47.7198 46.8314 47.7589 47.8142 47.666 48.7591C51.3589 51.7005 54.7466 54.8662 57.7153 58.6354L65.8389 44.4875L63.4379 43.1585L56.7868 49.4744C53.0739 44.4333 47.6891 40.6781 41.8461 36.4889C41.4042 35.0879 40.7769 33.7746 40.0578 32.5219C39.5656 33.2251 38.9034 33.8596 38.353 34.2998C37.2806 35.1576 35.3782 34.6139 34.9307 33.7172C34.4835 32.8204 36.5574 32.3011 36.0958 31.4599C35.6342 30.6185 33.5807 31.9229 32.8917 31.1685C32.203 30.4141 32.0082 29.2477 32.8917 28.2557C33.4442 27.6358 34.7128 27.3735 35.9342 27.3826C36.1775 27.3846 36.4206 27.3976 36.6627 27.4216C35.3704 25.5789 34.1824 23.7957 33.5078 21.9658C37.8284 22.4365 42.1482 22.9089 46.2398 24.5233C47.0706 26.7546 46.414 28.986 45.519 31.2172C46.1812 31.3511 46.9469 31.3649 47.6319 30.411C49.4111 27.933 50.6141 24.8485 49.7415 21.8459C49.5388 21.1485 43.8727 19.7614 38.3345 18.5869C42.4123 18.0742 46.8375 17.7353 51.4586 17.4942C53.5631 18.223 54.5769 20.3447 54.6593 23.3984C56.9437 22.2924 57.5772 21.1325 57.666 19.4731C57.8034 16.9101 55.8431 14.6824 54.4622 14.2653C53.9109 14.0835 34.3102 14.3039 30.0933 13.6781V13.6787ZM63.8288 17.2294L61.2899 19.34L62.9773 21.3696L65.5161 19.2588L63.829 17.2294H63.8288ZM13.514 17.9054L12.7138 20.4207L15.8605 21.4218L16.6605 18.9064L13.5138 17.9055L13.514 17.9054ZM60.1665 36.0234L57.8131 38.3391L59.6638 40.2206L62.0177 37.9048L60.1665 36.0232V36.0234ZM22.3249 40.4067L21.525 42.9218L24.6717 43.9229L25.4714 41.4077L22.3247 40.4069L22.3249 40.4067Z" fill="url(#paint0_radial_3053_4727)"/>
<defs>
<radialGradient id="paint0_radial_3053_4727" cx="0" cy="0" r="1" gradientUnits="userSpaceOnUse" gradientTransform="translate(21 8.5) rotate(60.2551) scale(68.5292 59.5606)">
<stop stop-color="#709861"/>
<stop offset="0.47" stop-color="#C3A480"/>
</radialGradient>
</defs>
</svg>
