<svg width="25" height="26" viewBox="0 0 25 26" fill="none" xmlns="http://www.w3.org/2000/svg">
<g clip-path="url(#clip0_1147_2398)">
<path d="M24.8523 5.01021C24.7811 4.7722 24.635 4.56354 24.4356 4.41526C24.2363 4.26699 23.9944 4.18702 23.746 4.18725C23.6344 4.18701 23.5234 4.20318 23.4165 4.23524L22.6857 4.45119C22.1563 3.45913 21.3316 2.65619 20.3257 2.15353L20.5125 1.43628C20.5822 1.14216 20.5337 0.83246 20.3776 0.573637C20.2215 0.314815 19.9702 0.127493 19.6776 0.0518727C19.3849 -0.0237482 19.0743 0.0183575 18.8124 0.169153C18.5504 0.319949 18.358 0.567418 18.2764 0.858456L18.0903 1.57182C18.0255 1.57182 17.9561 1.55495 17.8893 1.55495C16.8358 1.56018 15.8067 1.87328 14.9288 2.45573L14.3718 1.8844C14.1594 1.66459 13.8683 1.53816 13.5627 1.53293C13.2571 1.5277 12.9619 1.6441 12.7421 1.85651C12.5223 2.06892 12.3958 2.35996 12.3906 2.66559C12.3854 2.97121 12.5018 3.2664 12.7142 3.48621L13.3069 4.09386C12.9127 4.70565 12.6463 5.39078 12.5235 6.10813C12.4625 6.44886 12.3786 6.78511 12.2726 7.11462L11.6889 6.84095C11.4129 6.71066 11.0965 6.69534 10.8092 6.79835C10.522 6.90136 10.2874 7.11427 10.1571 7.39023C10.0268 7.6662 10.0115 7.98262 10.1145 8.26988C10.2175 8.55715 10.4304 8.79172 10.7064 8.92201L11.2771 9.18855C11.2336 9.2534 11.1993 9.32344 11.1545 9.38634C10.9938 9.59993 10.8219 9.80492 10.6396 10.0005C10.4065 10.2622 10.1558 10.5076 9.88929 10.7352C9.68211 10.9157 9.46565 11.0852 9.24078 11.243C9.16814 11.293 9.09032 11.3351 9.01575 11.3824L8.76153 10.8085C8.67029 10.6041 8.52177 10.4305 8.33393 10.3088C8.1461 10.187 7.92701 10.1223 7.70317 10.1224C7.54295 10.1228 7.3845 10.1559 7.23754 10.2197C7.09914 10.2803 6.97406 10.3676 6.86946 10.4766C6.76487 10.5856 6.68281 10.7142 6.62799 10.855C6.57317 10.9958 6.54666 11.146 6.54999 11.2971C6.55332 11.4481 6.58642 11.597 6.64739 11.7352L6.9068 12.3241C6.64338 12.405 6.37581 12.4716 6.10524 12.5238C5.31757 12.6587 4.56961 12.9666 3.91523 13.4253L3.26672 12.8416C3.15528 12.7371 3.02417 12.6557 2.88101 12.6023C2.73785 12.5489 2.5855 12.5245 2.43282 12.5305C2.28014 12.5366 2.13018 12.5729 1.99168 12.6374C1.85317 12.7019 1.72887 12.7933 1.62602 12.9063C1.52317 13.0193 1.44382 13.1517 1.39258 13.2956C1.34135 13.4396 1.31925 13.5923 1.32757 13.7448C1.3359 13.8974 1.37448 14.0468 1.44108 14.1843C1.50767 14.3218 1.60095 14.4447 1.71548 14.5459L2.34584 15.1133C1.78208 16.0537 1.51852 17.1437 1.59032 18.2378L0.821194 18.4655C0.676416 18.5087 0.541577 18.5801 0.424376 18.6755C0.307175 18.7708 0.209906 18.8883 0.138124 19.0213C0.0663426 19.1543 0.0214524 19.3001 0.0060182 19.4504C-0.00941604 19.6007 0.00490763 19.7526 0.0481706 19.8974C0.0914336 20.0421 0.162788 20.177 0.258162 20.2942C0.353536 20.4114 0.471061 20.5087 0.604026 20.5804C0.736991 20.6522 0.882792 20.6971 1.0331 20.7125C1.18342 20.728 1.3353 20.7137 1.48008 20.6704L2.21549 20.4525C2.74493 21.4473 3.5699 22.2535 4.5767 22.7599L4.39253 23.4635C4.31573 23.7599 4.35984 24.0747 4.51515 24.3387C4.67045 24.6026 4.92424 24.794 5.22067 24.8708C5.51711 24.9476 5.83191 24.9035 6.09582 24.7482C6.35973 24.5928 6.55114 24.3391 6.62794 24.0426L6.81082 23.3435C7.17416 23.3564 7.53787 23.3325 7.89642 23.2722C8.63377 23.1496 9.3387 22.9434 10.043 22.7378L10.2622 23.3513C10.3644 23.6399 10.5771 23.8761 10.8535 24.0079C11.1299 24.1396 11.4473 24.1562 11.7359 24.054C12.0245 23.9517 12.2607 23.739 12.3925 23.4626C12.5242 23.1863 12.5408 22.8689 12.4386 22.5802L12.2122 21.9454C13.2046 21.5191 14.158 21.0074 15.0618 20.4162L15.4716 20.9629C15.6558 21.2072 15.9291 21.3689 16.2319 21.4126C16.5348 21.4563 16.8426 21.3786 17.0884 21.1963C17.2106 21.1064 17.3137 20.9931 17.3918 20.8629C17.4699 20.7328 17.5213 20.5885 17.5431 20.4383C17.565 20.2882 17.5568 20.1352 17.519 19.9882C17.4813 19.8412 17.4147 19.7032 17.3231 19.5822L16.9049 19.0238C17.7251 18.3268 18.4835 17.56 19.1714 16.732L19.7434 17.1483C19.8649 17.2429 20.0042 17.312 20.1529 17.3518C20.3017 17.3916 20.4569 17.4011 20.6094 17.3798C20.7619 17.3586 20.9086 17.307 21.0408 17.228C21.173 17.1491 21.288 17.0445 21.3791 16.9203C21.4701 16.7962 21.5354 16.655 21.571 16.5052C21.6065 16.3554 21.6117 16.2 21.5862 16.0481C21.5606 15.8963 21.5049 15.7511 21.4223 15.6212C21.3397 15.4913 21.2319 15.3792 21.1052 15.2917L20.5294 14.8727C21.1077 13.9681 21.6068 13.0151 22.0209 12.0245L22.7006 12.2573C22.8433 12.3066 22.9944 12.3274 23.1451 12.3184C23.2959 12.3093 23.4434 12.2707 23.5792 12.2047C23.715 12.1386 23.8365 12.0465 23.9367 11.9335C24.0369 11.8205 24.1139 11.6889 24.1633 11.5462C24.2126 11.4035 24.2334 11.2524 24.2244 11.1017C24.2153 10.9509 24.1767 10.8034 24.1107 10.6676C24.0446 10.5317 23.9525 10.4103 23.8395 10.31C23.7265 10.2098 23.5949 10.1328 23.4522 10.0835L22.7816 9.85456C22.9626 9.20606 23.1571 8.56792 23.2693 7.89542C23.3343 7.48701 23.3521 7.07249 23.3225 6.66001L24.0735 6.43757C24.2185 6.39521 24.3537 6.32465 24.4714 6.22993C24.589 6.1352 24.6869 6.01819 24.7592 5.88558C24.8316 5.75297 24.877 5.60739 24.893 5.45717C24.909 5.30696 24.8952 5.15507 24.8523 5.01021ZM10.3737 18.6743C9.96328 18.6743 9.56206 18.5526 9.22079 18.3245C8.87952 18.0965 8.61353 17.7724 8.45646 17.3932C8.29939 17.014 8.2583 16.5967 8.33837 16.1942C8.41844 15.7916 8.61609 15.4219 8.90631 15.1316C9.19654 14.8414 9.56631 14.6438 9.96886 14.5637C10.3714 14.4836 10.7887 14.5247 11.1679 14.6818C11.5471 14.8389 11.8712 15.1048 12.0992 15.4461C12.3272 15.7874 12.4489 16.1886 12.4489 16.5991C12.4489 17.1494 12.2303 17.6773 11.8411 18.0665C11.4519 18.4556 10.9241 18.6743 10.3737 18.6743Z" fill="#69BFBF"/>
</g>
<defs>
<clipPath id="clip0_1147_2398">
<rect width="25" height="25" fill="white" transform="translate(0 0.00756836)"/>
</clipPath>
</defs>
</svg>
