<svg width="989" height="249" viewBox="0 0 989 249" fill="none" xmlns="http://www.w3.org/2000/svg">
<path d="M17.536 65.92C19.4133 69.248 21.4613 72.1493 23.68 74.624C25.984 77.0987 28.5013 79.0187 31.232 80.384C33.9627 81.7493 36.9067 82.432 40.064 82.432C43.7333 82.432 46.72 81.4933 49.024 79.616C51.328 77.7387 52.48 75.1787 52.48 71.936C52.48 69.12 51.7547 66.8587 50.304 65.152C48.9387 63.4453 46.848 61.952 44.032 60.672C41.3013 59.3067 37.9307 57.856 33.92 56.32C31.7867 55.552 29.312 54.528 26.496 53.248C23.7653 51.8827 21.1627 50.176 18.688 48.128C16.2133 45.9947 14.1653 43.4347 12.544 40.448C10.9227 37.376 10.112 33.7067 10.112 29.44C10.112 24.32 11.392 19.9253 13.952 16.256C16.5973 12.5013 20.1387 9.64266 24.576 7.67999C29.0987 5.63199 34.1333 4.60799 39.68 4.60799C45.3973 4.60799 50.304 5.58933 54.4 7.55199C58.5813 9.42933 62.0373 11.8613 64.768 14.848C67.584 17.7493 69.76 20.7787 71.296 23.936L56.96 31.872C55.7653 29.7387 54.3147 27.8187 52.608 26.112C50.9867 24.32 49.1093 22.912 46.976 21.888C44.8427 20.7787 42.4107 20.224 39.68 20.224C36.096 20.224 33.408 21.0773 31.616 22.784C29.824 24.4053 28.928 26.3253 28.928 28.544C28.928 30.7627 29.6533 32.7253 31.104 34.432C32.5547 36.0533 34.7733 37.632 37.76 39.168C40.7467 40.6187 44.5013 42.112 49.024 43.648C51.9253 44.672 54.6987 45.952 57.344 47.488C60.0747 49.024 62.5067 50.9013 64.64 53.12C66.8587 55.2533 68.5653 57.8133 69.76 60.8C71.04 63.7013 71.68 67.072 71.68 70.912C71.68 75.264 70.8267 79.1467 69.12 82.56C67.4133 85.9733 65.0667 88.8747 62.08 91.264C59.0933 93.568 55.7227 95.3173 51.968 96.512C48.2987 97.792 44.416 98.432 40.32 98.432C34.8587 98.432 29.7387 97.408 24.96 95.36C20.2667 93.2267 16.1707 90.368 12.672 86.784C9.17333 83.2 6.44267 79.3173 4.48 75.136L17.536 65.92ZM164.937 33.28V53.888H162.505C162.505 53.2907 162.377 52.608 162.121 51.84C161.865 51.072 161.524 50.6453 161.097 50.56H160.201C157.556 50.56 154.868 51.328 152.137 52.864C149.492 54.3147 147.273 56.2773 145.481 58.752C143.774 61.1413 142.921 63.7013 142.921 66.432V92.16C142.921 92.5867 143.22 92.928 143.817 93.184C144.5 93.44 145.14 93.568 145.737 93.568V96H124.233V93.568C124.83 93.568 125.428 93.44 126.025 93.184C126.708 92.928 127.049 92.5867 127.049 92.16V40.96C127.049 40.5333 126.708 40.192 126.025 39.936C125.428 39.68 124.83 39.552 124.233 39.552V37.12H142.921V42.624C145.225 40.4907 147.998 38.784 151.241 37.504C154.484 36.224 157.726 35.584 160.969 35.584H161.097H161.225C161.652 35.584 161.95 35.328 162.121 34.816C162.377 34.304 162.505 33.792 162.505 33.28H164.937ZM230.363 92.16C230.363 92.5867 230.662 92.928 231.259 93.184C231.942 93.44 232.582 93.568 233.179 93.568V96H217.307V91.264C212.784 95.1893 207.536 97.152 201.563 97.152C192.603 97.152 186.032 94.592 181.851 89.472C177.67 84.2667 175.579 77.7813 175.579 70.016V40.96C175.579 40.5333 175.238 40.192 174.555 39.936C173.958 39.68 173.36 39.552 172.763 39.552V37.12H194.523V39.552C193.926 39.552 193.286 39.68 192.603 39.936C192.006 40.192 191.707 40.5333 191.707 40.96V68.992C191.707 72.6613 192.646 75.776 194.523 78.336C196.4 80.8107 199.302 82.048 203.227 82.048C206.982 82.048 209.798 80.896 211.675 78.592C213.552 76.288 214.491 73.344 214.491 69.76V40.96C214.491 40.5333 214.15 40.192 213.467 39.936C212.87 39.68 212.272 39.552 211.675 39.552V37.12H233.179V39.552C232.582 39.552 231.942 39.68 231.259 39.936C230.662 40.192 230.363 40.5333 230.363 40.96V92.16ZM244.501 100.096H260.757C260.842 102.656 261.525 104.832 262.805 106.624C264.085 108.501 265.834 109.952 268.053 110.976C270.272 112 272.874 112.512 275.861 112.512C278.592 112.512 281.152 111.872 283.541 110.592C286.016 109.312 287.978 107.349 289.429 104.704C290.965 102.059 291.733 98.7307 291.733 94.72V37.12H307.733V94.72C307.733 101.973 306.282 107.947 303.381 112.64C300.565 117.333 296.768 120.747 291.989 122.88C287.21 125.099 282.005 126.208 276.373 126.208C269.546 126.208 263.829 125.099 259.221 122.88C254.613 120.747 251.072 117.675 248.597 113.664C246.208 109.739 244.842 105.216 244.501 100.096ZM243.349 66.048C243.349 59.4773 244.672 53.9733 247.317 49.536C249.962 45.0133 253.461 41.6 257.813 39.296C262.165 36.992 266.773 35.84 271.637 35.84C276.586 35.84 280.938 37.0347 284.693 39.424C288.533 41.8133 291.52 45.2693 293.653 49.792C295.872 54.2293 296.981 59.648 296.981 66.048C296.981 72.3627 295.872 77.7813 293.653 82.304C291.52 86.8267 288.533 90.2827 284.693 92.672C280.938 94.976 276.586 96.128 271.637 96.128C266.773 96.128 262.165 94.976 257.813 92.672C253.461 90.368 249.962 86.9973 247.317 82.56C244.672 78.0373 243.349 72.5333 243.349 66.048ZM260.501 66.048C260.501 69.5467 261.226 72.5333 262.677 75.008C264.128 77.3973 266.09 79.232 268.565 80.512C271.04 81.792 273.685 82.432 276.501 82.432C278.976 82.432 281.365 81.8347 283.669 80.64C286.058 79.36 287.978 77.5253 289.429 75.136C290.965 72.6613 291.733 69.632 291.733 66.048C291.733 63.3173 291.306 60.928 290.453 58.88C289.6 56.832 288.405 55.1253 286.869 53.76C285.418 52.3947 283.797 51.3707 282.005 50.688C280.213 49.92 278.378 49.536 276.501 49.536C273.685 49.536 271.04 50.176 268.565 51.456C266.09 52.736 264.128 54.6133 262.677 57.088C261.226 59.4773 260.501 62.464 260.501 66.048ZM321.001 100.096H337.257C337.342 102.656 338.025 104.832 339.305 106.624C340.585 108.501 342.334 109.952 344.553 110.976C346.772 112 349.374 112.512 352.361 112.512C355.092 112.512 357.652 111.872 360.041 110.592C362.516 109.312 364.478 107.349 365.929 104.704C367.465 102.059 368.233 98.7307 368.233 94.72V37.12H384.233V94.72C384.233 101.973 382.782 107.947 379.881 112.64C377.065 117.333 373.268 120.747 368.489 122.88C363.71 125.099 358.505 126.208 352.873 126.208C346.046 126.208 340.329 125.099 335.721 122.88C331.113 120.747 327.572 117.675 325.097 113.664C322.708 109.739 321.342 105.216 321.001 100.096ZM319.849 66.048C319.849 59.4773 321.172 53.9733 323.817 49.536C326.462 45.0133 329.961 41.6 334.313 39.296C338.665 36.992 343.273 35.84 348.137 35.84C353.086 35.84 357.438 37.0347 361.193 39.424C365.033 41.8133 368.02 45.2693 370.153 49.792C372.372 54.2293 373.481 59.648 373.481 66.048C373.481 72.3627 372.372 77.7813 370.153 82.304C368.02 86.8267 365.033 90.2827 361.193 92.672C357.438 94.976 353.086 96.128 348.137 96.128C343.273 96.128 338.665 94.976 334.313 92.672C329.961 90.368 326.462 86.9973 323.817 82.56C321.172 78.0373 319.849 72.5333 319.849 66.048ZM337.001 66.048C337.001 69.5467 337.726 72.5333 339.177 75.008C340.628 77.3973 342.59 79.232 345.065 80.512C347.54 81.792 350.185 82.432 353.001 82.432C355.476 82.432 357.865 81.8347 360.169 80.64C362.558 79.36 364.478 77.5253 365.929 75.136C367.465 72.6613 368.233 69.632 368.233 66.048C368.233 63.3173 367.806 60.928 366.953 58.88C366.1 56.832 364.905 55.1253 363.369 53.76C361.918 52.3947 360.297 51.3707 358.505 50.688C356.713 49.92 354.878 49.536 353.001 49.536C350.185 49.536 347.54 50.176 345.065 51.456C342.59 52.736 340.628 54.6133 339.177 57.088C337.726 59.4773 337.001 62.464 337.001 66.048ZM400.957 3.84C400.957 3.41333 400.616 3.072 399.933 2.81599C399.336 2.56 398.696 2.432 398.013 2.432V-7.62939e-06H420.541V2.432C419.858 2.432 419.176 2.56 418.493 2.81599C417.896 3.072 417.597 3.41333 417.597 3.84V92.16C417.597 92.5867 417.896 92.928 418.493 93.184C419.176 93.44 419.858 93.568 420.541 93.568V96H398.013V93.568C398.696 93.568 399.336 93.44 399.933 93.184C400.616 92.928 400.957 92.5867 400.957 92.16V3.84ZM462.343 97.28C455.943 97.28 450.354 96 445.575 93.44C440.796 90.88 437.084 87.3387 434.439 82.816C431.879 78.208 430.599 72.7893 430.599 66.56C430.599 60.2453 431.879 54.8267 434.439 50.304C437.084 45.696 440.796 42.1547 445.575 39.68C450.354 37.12 455.986 35.84 462.471 35.84C468.956 35.84 474.46 37.0347 478.983 39.424C483.591 41.728 487.09 45.1413 489.479 49.664C491.868 54.1013 493.063 59.4773 493.063 65.792C493.063 66.56 493.02 67.3707 492.935 68.224C492.935 69.0773 492.892 69.76 492.807 70.272H440.071V60.032H478.343L473.863 65.92C474.204 65.408 474.503 64.7253 474.759 63.872C475.1 62.9333 475.271 62.1653 475.271 61.568C475.271 58.6667 474.716 56.192 473.607 54.144C472.583 52.096 471.09 50.4747 469.127 49.28C467.164 48.0853 464.86 47.488 462.215 47.488C458.972 47.488 456.242 48.2133 454.023 49.664C451.89 51.0293 450.226 53.12 449.031 55.936C447.922 58.6667 447.324 62.08 447.239 66.176C447.239 70.1013 447.794 73.4293 448.903 76.16C450.098 78.8907 451.847 80.9813 454.151 82.432C456.455 83.8827 459.228 84.608 462.471 84.608C466.14 84.608 469.255 83.9253 471.815 82.56C474.46 81.1093 476.636 78.976 478.343 76.16L492.807 80.64C489.735 86.1867 485.639 90.368 480.519 93.184C475.484 95.9147 469.426 97.28 462.343 97.28ZM250.671 147.312V167.792H248.239C248.239 167.195 248.111 166.597 247.855 166C247.599 165.403 247.258 165.104 246.831 165.104H205.359V187.76H238.895C239.322 187.76 239.663 187.461 239.919 186.864C240.175 186.267 240.303 185.669 240.303 185.072H242.735V205.552H240.303C240.303 204.955 240.175 204.357 239.919 203.76C239.663 203.163 239.322 202.864 238.895 202.864H205.359V242.16C205.359 242.587 205.658 242.928 206.255 243.184C206.938 243.44 207.62 243.568 208.303 243.568V246H185.775V243.568C186.458 243.568 187.098 243.44 187.695 243.184C188.378 242.928 188.719 242.587 188.719 242.16V153.84C188.719 153.413 188.378 153.072 187.695 152.816C187.098 152.56 186.5 152.432 185.903 152.432V150H246.831C247.258 150 247.599 149.701 247.855 149.104C248.111 148.507 248.239 147.909 248.239 147.312H250.671ZM289.73 247.536C283.415 247.536 277.826 246.213 272.962 243.568C268.183 240.837 264.429 237.125 261.698 232.432C259.053 227.739 257.73 222.448 257.73 216.56C257.73 210.757 259.053 205.467 261.698 200.688C264.429 195.909 268.226 192.155 273.09 189.424C277.954 186.608 283.501 185.2 289.73 185.2C295.703 185.2 301.122 186.565 305.986 189.296C310.85 191.941 314.69 195.653 317.506 200.432C320.322 205.125 321.73 210.501 321.73 216.56C321.73 221.851 320.45 226.885 317.89 231.664C315.415 236.357 311.746 240.197 306.882 243.184C302.018 246.085 296.301 247.536 289.73 247.536ZM289.73 232.816C294.765 232.816 298.818 231.365 301.89 228.464C305.047 225.477 306.626 221.637 306.626 216.944C306.626 212.08 305.047 208.069 301.89 204.912C298.818 201.755 294.765 200.176 289.73 200.176C285.037 200.176 281.111 201.755 277.954 204.912C274.797 207.984 273.218 211.867 273.218 216.56C273.218 221.509 274.797 225.477 277.954 228.464C281.111 231.365 285.037 232.816 289.73 232.816ZM371.562 183.28V203.888H369.13C369.13 203.291 369.002 202.608 368.746 201.84C368.49 201.072 368.149 200.645 367.722 200.56H366.826C364.181 200.56 361.493 201.328 358.762 202.864C356.117 204.315 353.898 206.277 352.106 208.752C350.399 211.141 349.546 213.701 349.546 216.432V242.16C349.546 242.587 349.845 242.928 350.442 243.184C351.125 243.44 351.765 243.568 352.362 243.568V246H330.858V243.568C331.455 243.568 332.053 243.44 332.65 243.184C333.333 242.928 333.674 242.587 333.674 242.16V190.96C333.674 190.533 333.333 190.192 332.65 189.936C332.053 189.68 331.455 189.552 330.858 189.552V187.12H349.546V192.624C351.85 190.491 354.623 188.784 357.866 187.504C361.109 186.224 364.351 185.584 367.594 185.584H367.722H367.85C368.277 185.584 368.575 185.328 368.746 184.816C369.002 184.304 369.13 183.792 369.13 183.28H371.562ZM426.911 215.92C428.788 219.248 430.836 222.149 433.055 224.624C435.359 227.099 437.876 229.019 440.607 230.384C443.338 231.749 446.282 232.432 449.439 232.432C453.108 232.432 456.095 231.493 458.399 229.616C460.703 227.739 461.855 225.179 461.855 221.936C461.855 219.12 461.13 216.859 459.679 215.152C458.314 213.445 456.223 211.952 453.407 210.672C450.676 209.307 447.306 207.856 443.295 206.32C441.162 205.552 438.687 204.528 435.871 203.248C433.14 201.883 430.538 200.176 428.063 198.128C425.588 195.995 423.54 193.435 421.919 190.448C420.298 187.376 419.487 183.707 419.487 179.44C419.487 174.32 420.767 169.925 423.327 166.256C425.972 162.501 429.514 159.643 433.951 157.68C438.474 155.632 443.508 154.608 449.055 154.608C454.772 154.608 459.679 155.589 463.775 157.552C467.956 159.429 471.412 161.861 474.143 164.848C476.959 167.749 479.135 170.779 480.671 173.936L466.335 181.872C465.14 179.739 463.69 177.819 461.983 176.112C460.362 174.32 458.484 172.912 456.351 171.888C454.218 170.779 451.786 170.224 449.055 170.224C445.471 170.224 442.783 171.077 440.991 172.784C439.199 174.405 438.303 176.325 438.303 178.544C438.303 180.763 439.028 182.725 440.479 184.432C441.93 186.053 444.148 187.632 447.135 189.168C450.122 190.619 453.876 192.112 458.399 193.648C461.3 194.672 464.074 195.952 466.719 197.488C469.45 199.024 471.882 200.901 474.015 203.12C476.234 205.253 477.94 207.813 479.135 210.8C480.415 213.701 481.055 217.072 481.055 220.912C481.055 225.264 480.202 229.147 478.495 232.56C476.788 235.973 474.442 238.875 471.455 241.264C468.468 243.568 465.098 245.317 461.343 246.512C457.674 247.792 453.791 248.432 449.695 248.432C444.234 248.432 439.114 247.408 434.335 245.36C429.642 243.227 425.546 240.368 422.047 236.784C418.548 233.2 415.818 229.317 413.855 225.136L426.911 215.92ZM561.386 189.552C560.789 189.552 560.149 189.68 559.466 189.936C558.869 190.192 558.57 190.533 558.57 190.96V242.16C558.57 242.587 558.869 242.928 559.466 243.184C560.149 243.44 560.789 243.568 561.386 243.568V246H542.442V238.96C537.066 244.763 530.282 247.664 522.09 247.664C515.861 247.664 510.357 246.427 505.578 243.952C500.885 241.392 497.215 237.765 494.57 233.072C492.01 228.379 490.73 222.917 490.73 216.688C490.73 210.629 492.138 205.253 494.954 200.56C497.855 195.781 501.695 192.112 506.474 189.552C511.253 186.907 516.458 185.584 522.09 185.584C530.282 185.584 537.066 188.741 542.442 195.056V187.12H561.386V189.552ZM524.01 234.096C527.509 234.096 530.623 233.328 533.354 231.792C536.17 230.171 538.346 228.08 539.882 225.52C541.418 222.875 542.186 220.059 542.186 217.072C542.186 211.952 540.479 207.728 537.066 204.4C533.738 201.072 529.386 199.408 524.01 199.408C518.805 199.408 514.495 201.029 511.082 204.272C507.754 207.515 506.09 211.653 506.09 216.688C506.09 221.979 507.797 226.203 511.21 229.36C514.709 232.517 518.975 234.096 524.01 234.096ZM576.082 153.84C576.082 153.413 575.741 153.072 575.058 152.816C574.461 152.56 573.821 152.432 573.138 152.432V150H595.666V152.432C594.983 152.432 594.301 152.56 593.618 152.816C593.021 153.072 592.722 153.413 592.722 153.84V242.16C592.722 242.587 593.021 242.928 593.618 243.184C594.301 243.44 594.983 243.568 595.666 243.568V246H573.138V243.568C573.821 243.568 574.461 243.44 575.058 243.184C575.741 242.928 576.082 242.587 576.082 242.16V153.84ZM674.972 189.552C673.265 189.552 672.199 189.893 671.772 190.576L648.604 240.24C648.348 240.837 648.22 241.349 648.22 241.776C648.22 242.459 648.476 242.928 648.988 243.184C649.585 243.44 650.183 243.568 650.78 243.568V246H624.924V243.568C625.521 243.568 626.119 243.44 626.716 243.184C627.313 242.843 627.612 242.288 627.612 241.52C627.612 241.093 627.484 240.624 627.228 240.112L605.852 190.704C605.596 189.936 604.572 189.552 602.78 189.552V187.12H625.052V189.552C624.028 189.552 623.345 189.808 623.004 190.32C622.748 190.747 622.748 191.259 623.004 191.856L638.748 228.592L655.388 191.728C655.473 191.643 655.516 191.515 655.516 191.344C655.516 190.917 655.175 190.533 654.492 190.192C653.895 189.765 653.127 189.552 652.188 189.552V187.12H674.972V189.552ZM751.386 189.552C750.789 189.552 750.149 189.68 749.466 189.936C748.869 190.192 748.57 190.533 748.57 190.96V242.16C748.57 242.587 748.869 242.928 749.466 243.184C750.149 243.44 750.789 243.568 751.386 243.568V246H732.442V238.96C727.066 244.763 720.282 247.664 712.09 247.664C705.861 247.664 700.357 246.427 695.578 243.952C690.885 241.392 687.215 237.765 684.57 233.072C682.01 228.379 680.73 222.917 680.73 216.688C680.73 210.629 682.138 205.253 684.954 200.56C687.855 195.781 691.695 192.112 696.474 189.552C701.253 186.907 706.458 185.584 712.09 185.584C720.282 185.584 727.066 188.741 732.442 195.056V187.12H751.386V189.552ZM714.01 234.096C717.509 234.096 720.623 233.328 723.354 231.792C726.17 230.171 728.346 228.08 729.882 225.52C731.418 222.875 732.186 220.059 732.186 217.072C732.186 211.952 730.479 207.728 727.066 204.4C723.738 201.072 719.386 199.408 714.01 199.408C708.805 199.408 704.495 201.029 701.082 204.272C697.754 207.515 696.09 211.653 696.09 216.688C696.09 221.979 697.797 226.203 701.21 229.36C704.709 232.517 708.975 234.096 714.01 234.096ZM797.442 184.56V204.016H795.01C795.01 203.419 794.882 202.864 794.626 202.352C794.37 201.755 794.029 201.456 793.602 201.456H785.282V242.16C785.282 242.587 785.581 242.928 786.178 243.184C786.775 243.44 787.373 243.568 787.97 243.568V246H767.106V243.568C767.703 243.568 768.301 243.44 768.898 243.184C769.495 242.928 769.794 242.587 769.794 242.16V201.456H763.65C763.223 201.456 762.882 201.755 762.626 202.352C762.37 202.864 762.242 203.419 762.242 204.016H759.81V184.56H762.242C762.242 185.157 762.37 185.755 762.626 186.352C762.882 186.864 763.223 187.12 763.65 187.12H769.794V172.144C769.794 171.717 769.495 171.376 768.898 171.12C768.301 170.864 767.703 170.736 767.106 170.736V168.304H787.97V170.736C787.373 170.736 786.775 170.864 786.178 171.12C785.581 171.376 785.282 171.717 785.282 172.144V187.12H793.602C794.029 187.12 794.37 186.864 794.626 186.352C794.882 185.755 795.01 185.157 795.01 184.56H797.442ZM818.816 176.368C816.085 176.368 813.739 175.429 811.776 173.552C809.899 171.675 808.96 169.328 808.96 166.512C808.96 163.867 809.899 161.605 811.776 159.728C813.739 157.765 816.085 156.784 818.816 156.784C821.547 156.784 823.851 157.765 825.728 159.728C827.605 161.605 828.544 163.867 828.544 166.512C828.544 169.328 827.605 171.675 825.728 173.552C823.851 175.429 821.547 176.368 818.816 176.368ZM810.496 190.96C810.496 190.533 810.155 190.192 809.472 189.936C808.875 189.68 808.277 189.552 807.68 189.552V187.12H829.696V189.552C829.099 189.552 828.459 189.68 827.776 189.936C827.179 190.192 826.88 190.533 826.88 190.96V242.16C826.88 242.587 827.179 242.928 827.776 243.184C828.459 243.44 829.099 243.568 829.696 243.568V246H807.68V243.568C808.277 243.568 808.875 243.44 809.472 243.184C810.155 242.928 810.496 242.587 810.496 242.16V190.96ZM873.855 247.536C867.54 247.536 861.951 246.213 857.087 243.568C852.308 240.837 848.554 237.125 845.823 232.432C843.178 227.739 841.855 222.448 841.855 216.56C841.855 210.757 843.178 205.467 845.823 200.688C848.554 195.909 852.351 192.155 857.215 189.424C862.079 186.608 867.626 185.2 873.855 185.2C879.828 185.2 885.247 186.565 890.111 189.296C894.975 191.941 898.815 195.653 901.631 200.432C904.447 205.125 905.855 210.501 905.855 216.56C905.855 221.851 904.575 226.885 902.015 231.664C899.54 236.357 895.871 240.197 891.007 243.184C886.143 246.085 880.426 247.536 873.855 247.536ZM873.855 232.816C878.89 232.816 882.943 231.365 886.015 228.464C889.172 225.477 890.751 221.637 890.751 216.944C890.751 212.08 889.172 208.069 886.015 204.912C882.943 201.755 878.89 200.176 873.855 200.176C869.162 200.176 865.236 201.755 862.079 204.912C858.922 207.984 857.343 211.867 857.343 216.56C857.343 221.509 858.922 225.477 862.079 228.464C865.236 231.365 869.162 232.816 873.855 232.816ZM979.751 242.16C979.751 242.587 980.05 242.928 980.647 243.184C981.33 243.44 982.012 243.568 982.695 243.568V246H960.167V243.568C960.85 243.568 961.49 243.44 962.087 243.184C962.77 242.928 963.111 242.587 963.111 242.16V215.536C963.111 211.184 962.044 207.472 959.911 204.4C957.778 201.243 954.578 199.664 950.311 199.664C945.959 199.664 942.418 201.115 939.687 204.016C937.042 206.917 935.719 211.099 935.719 216.56V242.16C935.719 242.587 936.018 242.928 936.615 243.184C937.298 243.44 937.98 243.568 938.663 243.568V246H916.263V243.568C916.946 243.568 917.586 243.44 918.183 243.184C918.866 242.928 919.207 242.587 919.207 242.16V190.96C919.207 190.533 918.866 190.192 918.183 189.936C917.586 189.68 916.988 189.552 916.391 189.552V187.12H935.719V192.368C937.938 190.32 940.54 188.741 943.527 187.632C946.599 186.437 949.714 185.84 952.871 185.84C958.332 185.84 963.068 186.992 967.079 189.296C971.175 191.6 974.29 194.715 976.423 198.64C978.642 202.48 979.751 206.789 979.751 211.568V242.16Z" fill="#F5F5F5"/>
<path d="M117.067 34.56V54.016H114.635C114.635 53.4187 114.507 52.864 114.251 52.352C113.995 51.7547 113.654 51.456 113.227 51.456H104.907V92.16C104.907 92.5867 105.206 92.928 105.803 93.184C106.4 93.44 106.998 93.568 107.595 93.568V96H86.731V93.568C87.3283 93.568 87.9257 93.44 88.523 93.184C89.1203 92.928 89.419 92.5867 89.419 92.16V51.456H83.275C82.8483 51.456 82.507 51.7547 82.251 52.352C81.995 52.864 81.867 53.4187 81.867 54.016H79.435V34.56H81.867C81.867 35.1573 81.995 35.7547 82.251 36.352C82.507 36.864 82.8483 37.12 83.275 37.12H89.419V22.144C89.419 21.7173 89.1203 21.376 88.523 21.12C87.9257 20.864 87.3283 20.736 86.731 20.736V18.304H107.595V20.736C106.998 20.736 106.4 20.864 105.803 21.12C105.206 21.376 104.907 21.7173 104.907 22.144V37.12H113.227C113.654 37.12 113.995 36.864 114.251 36.352C114.507 35.7547 114.635 35.1573 114.635 34.56H117.067Z" fill="#33AAFF"/>
</svg>
