<svg width="1011" height="421" viewBox="0 0 1011 421" fill="none" xmlns="http://www.w3.org/2000/svg">
<g clip-path="url(#clip0_300_921)">
<mask id="mask0_300_921" style="mask-type:luminance" maskUnits="userSpaceOnUse" x="0" y="0" width="1011" height="421">
<path d="M1011 0H0V421H1011V0Z" fill="white"/>
</mask>
<g mask="url(#mask0_300_921)">
<path d="M676.02 229.001V313.601L584.04 222.701V355.001H604.92V270.401L696.9 361.301V229.001H676.02ZM722.501 239.261C722.501 242.501 723.701 245.321 726.101 247.721C728.621 250.001 731.501 251.141 734.741 251.141C738.221 251.141 741.101 250.001 743.381 247.721C745.781 245.321 746.981 242.501 746.981 239.261C746.981 235.901 745.781 233.081 743.381 230.801C741.101 228.521 738.221 227.381 734.741 227.381C731.501 227.381 728.621 228.521 726.101 230.801C723.701 233.081 722.501 235.901 722.501 239.261ZM725.201 272.201V355.001H744.281V272.201H725.201ZM766.353 360.581C766.593 367.781 768.393 374.141 771.753 379.661C775.233 385.181 780.153 389.441 786.513 392.441C792.873 395.561 800.553 397.121 809.553 397.121C817.113 397.121 824.133 395.501 830.613 392.261C837.093 389.141 842.313 384.341 846.273 377.861C850.353 371.381 852.393 363.161 852.393 353.201V272.201H833.313V353.201C833.313 359.441 832.113 364.541 829.713 368.501C827.433 372.461 824.433 375.401 820.713 377.321C816.993 379.241 813.093 380.201 809.013 380.201C804.453 380.201 800.433 379.361 796.953 377.681C793.473 376.001 790.713 373.661 788.673 370.661C786.753 367.661 785.733 364.301 785.613 360.581H766.353ZM764.733 313.241C764.733 322.241 766.593 329.921 770.313 336.281C774.033 342.641 778.953 347.501 785.073 350.861C791.313 354.221 797.973 355.901 805.053 355.901C812.013 355.901 818.073 354.221 823.233 350.861C828.513 347.381 832.653 342.461 835.653 336.101C838.773 329.741 840.333 322.121 840.333 313.241C840.333 304.241 838.773 296.561 835.653 290.201C832.653 283.841 828.513 278.981 823.233 275.621C818.073 272.141 812.013 270.401 805.053 270.401C797.973 270.401 791.313 272.081 785.073 275.441C778.953 278.801 774.033 283.661 770.313 290.021C766.593 296.261 764.733 304.001 764.733 313.241ZM784.893 313.241C784.893 307.601 786.033 302.861 788.313 299.021C790.593 295.181 793.593 292.301 797.313 290.381C801.153 288.341 805.293 287.321 809.733 287.321C812.493 287.321 815.253 287.861 818.013 288.941C820.893 290.021 823.473 291.701 825.753 293.981C828.033 296.141 829.833 298.841 831.153 302.081C832.593 305.201 833.313 308.921 833.313 313.241C833.313 318.761 832.113 323.501 829.713 327.461C827.433 331.301 824.433 334.181 820.713 336.101C817.113 338.021 813.453 338.981 809.733 338.981C805.293 338.981 801.153 338.021 797.313 336.101C793.593 334.061 790.593 331.121 788.313 327.281C786.033 323.441 784.893 318.761 784.893 313.241ZM895.942 214.601H876.502V355.001H895.942V214.601ZM929.782 304.601V355.001H949.402V301.901C949.402 294.821 948.322 288.941 946.162 284.261C944.002 279.461 940.762 275.861 936.442 273.461C932.242 271.061 927.082 269.861 920.962 269.861C914.722 269.861 909.382 271.421 904.942 274.541C900.622 277.661 897.262 281.801 894.862 286.961C892.462 292.121 891.262 298.001 891.262 304.601H895.942C895.942 300.881 896.722 297.641 898.282 294.881C899.842 292.121 902.002 289.961 904.762 288.401C907.522 286.841 910.702 286.061 914.302 286.061C919.702 286.061 923.602 287.621 926.002 290.741C928.522 293.861 929.782 298.481 929.782 304.601ZM962.541 272.201V289.301H1009.52V272.201H962.541ZM976.401 243.401V355.001H995.661V243.401H976.401Z" fill="#0A0A0A"/>
<path d="M29.16 165.6H95.76L91.62 147.6H33.12L29.16 165.6ZM62.1 107.64L82.08 154.44L82.62 159.66L99.72 198H123.66L62.1 64.9801L0.540039 198H24.48L41.94 158.58L42.3 153.9L62.1 107.64ZM140.477 170.82L129.137 182.16C131.537 185.28 134.477 188.28 137.957 191.16C141.557 193.92 145.697 196.2 150.377 198C155.177 199.68 160.397 200.52 166.037 200.52C175.157 200.52 182.357 198.18 187.637 193.5C193.037 188.7 195.737 182.4 195.737 174.6C195.737 169.56 194.537 165.48 192.137 162.36C189.857 159.24 186.797 156.6 182.957 154.44C179.117 152.28 174.917 150.3 170.357 148.5C166.997 147.18 163.937 145.92 161.177 144.72C158.537 143.52 156.377 142.2 154.697 140.76C153.137 139.2 152.357 137.46 152.357 135.54C152.357 133.26 153.257 131.52 155.057 130.32C156.857 129.12 159.137 128.52 161.897 128.52C165.977 128.52 169.937 129.54 173.777 131.58C177.617 133.62 180.917 136.26 183.677 139.5L194.477 127.98C192.197 125.22 189.437 122.76 186.197 120.6C182.957 118.44 179.297 116.7 175.217 115.38C171.257 114.06 166.997 113.4 162.437 113.4C157.397 113.4 152.657 114.24 148.217 115.92C143.897 117.48 140.417 119.94 137.777 123.3C135.257 126.66 133.997 130.86 133.997 135.9C133.997 140.82 135.137 144.9 137.417 148.14C139.817 151.38 142.817 154.02 146.417 156.06C150.137 157.98 153.857 159.66 157.577 161.1C161.297 162.42 164.537 163.74 167.297 165.06C170.057 166.26 172.217 167.76 173.777 169.56C175.337 171.24 176.117 173.28 176.117 175.68C176.117 178.44 175.097 180.6 173.057 182.16C171.137 183.72 168.437 184.5 164.957 184.5C162.197 184.5 159.437 184.02 156.677 183.06C153.917 181.98 151.157 180.42 148.397 178.38C145.757 176.22 143.117 173.7 140.477 170.82ZM232.426 57.6001H212.986V198H232.426V57.6001ZM266.266 147.6V198H285.886V144.9C285.886 137.82 284.806 131.94 282.646 127.26C280.486 122.46 277.246 118.86 272.926 116.46C268.726 114.06 263.566 112.86 257.446 112.86C251.206 112.86 245.866 114.42 241.426 117.54C237.106 120.66 233.746 124.8 231.346 129.96C228.946 135.12 227.746 141 227.746 147.6H232.426C232.426 143.88 233.206 140.64 234.766 137.88C236.326 135.12 238.486 132.96 241.246 131.4C244.006 129.84 247.186 129.06 250.786 129.06C256.186 129.06 260.086 130.62 262.486 133.74C265.006 136.86 266.266 141.48 266.266 147.6Z" fill="#F5F5F5"/>
<path fill-rule="evenodd" clip-rule="evenodd" d="M514.726 133.317V43.8541L470.92 2.65348e-05L379.805 0L336 43.8542V219.271L379.805 263.125H441.133V222.779H407.841L385.062 199.975V63.15L407.841 40.3459H442.885L465.664 63.15V133.317H514.726Z" fill="#F5F5F5"/>
<path fill-rule="evenodd" clip-rule="evenodd" d="M490.195 421L534 377.146V201.729L490.195 157.875H428.867V198.221H462.159L484.938 221.025V357.85L462.159 380.654H427.115L404.336 357.85V287.683H355.274V377.146L399.08 421H490.195Z" fill="#0A0A0A"/>
</g>
</g>
<defs>
<clipPath id="clip0_300_921">
<rect width="1011" height="421" fill="white"/>
</clipPath>
</defs>
</svg>
