<svg width="70" height="70" viewBox="0 0 70 70" fill="none" xmlns="http://www.w3.org/2000/svg">
<g clip-path="url(#clip0_3053_4718)">
<path d="M46.7604 0.00173308C41.3185 0.132947 34.5255 9.0213 29.5543 21.8912H29.5548C34.0858 12.1914 40.1056 6.15295 43.9864 7.19023C48.1459 8.30207 49.4879 17.4595 47.6699 29.1437C47.5372 29.0964 47.4071 29.0488 47.2738 29.0017C47.4062 29.056 47.5354 29.1109 47.6666 29.1653C47.2237 32.0078 46.5963 34.9973 45.774 38.0589C45.3633 39.5873 44.9196 41.0752 44.4492 42.5175C40.7436 41.9524 36.6849 41.1067 32.4679 39.979C16.775 35.7837 4.87676 29.3103 5.88603 25.5514C6.51712 23.2017 12.1372 22.0344 20.1042 22.5499C9.07054 21.2629 0.993264 22.2476 0.085544 25.6273C-1.25432 30.617 13.3045 38.8481 32.5736 44.0002C36.1961 44.9691 39.729 45.7601 43.087 46.3733C38.793 57.5979 32.9627 65.024 28.7584 63.9C25.5241 63.0346 23.4222 57.1776 23.3746 49.0765C22.6645 60.2417 24.7501 68.5951 29.4024 69.8394C35.1597 71.3789 42.9513 61.7035 48.3627 47.2091C60.2403 48.7978 68.9629 47.8419 69.9149 44.2975C70.8613 40.7738 63.8331 35.6525 52.8513 31.1273C55.922 14.9997 54.1089 1.76328 48.1133 0.159722C47.6733 0.0419698 47.2219 -0.0095097 46.7607 0.00143711L46.7604 0.00173308ZM52.7745 31.5235C59.3938 34.9247 63.3217 38.4962 62.7175 40.7466C62.1163 42.9848 57.0687 43.7728 49.7706 43.1583C50.2768 41.5897 50.7549 39.9775 51.1982 38.3265C51.8173 36.0206 52.3416 33.7458 52.7744 31.5238L52.7745 31.5235Z" fill="url(#paint0_radial_3053_4718)"/>
</g>
<defs>
<radialGradient id="paint0_radial_3053_4718" cx="0" cy="0" r="1" gradientUnits="userSpaceOnUse" gradientTransform="translate(46 44.5) rotate(-130.601) scale(41.4879)">
<stop stop-color="#D257DC"/>
<stop offset="1" stop-color="#DCBFD8"/>
</radialGradient>
<clipPath id="clip0_3053_4718">
<rect width="70" height="70" fill="white"/>
</clipPath>
</defs>
</svg>
