<svg width="14" height="37" viewBox="0 0 14 37" fill="none" xmlns="http://www.w3.org/2000/svg">
<mask id="mask0_1170_1062" style="mask-type:alpha" maskUnits="userSpaceOnUse" x="0" y="0" width="14" height="37">
<rect x="0.5" y="0.0809326" width="13" height="36" fill="#D9D9D9"/>
</mask>
<g mask="url(#mask0_1170_1062)">
<path d="M0.331357 1.4027L-10.6685 3.94116C-11.0088 4.01969 -11.2499 4.32271 -11.2499 4.67195V21.2956C-11.2499 21.4849 -11.1783 21.6672 -11.0495 21.8059L-0.0495901 33.652C0.247131 33.9716 0.752875 33.9716 1.0496 33.652L12.0496 21.8059L12.9656 22.6565L12.0496 21.8059C12.1784 21.6672 12.25 21.4849 12.25 21.2956V4.67196C12.25 4.32272 12.0089 4.01969 11.6686 3.94116L0.668646 1.4027C0.557674 1.37709 0.442327 1.37709 0.331357 1.4027Z" fill="#004384" fill-opacity="0.5" stroke="#509BE5" stroke-width="2.5"/>
<circle cx="0.5" cy="16.5809" r="7.5" fill="#509BE5"/>
</g>
</svg>
