<svg width="16" height="17" viewBox="0 0 16 17" fill="none" xmlns="http://www.w3.org/2000/svg">
<path d="M16 0.503784C12.8621 1.09328 9.24632 2.63005 6.31972 4.26441C4.77849 5.1269 3.42776 6.01132 2.43687 6.79341C1.94125 7.18812 1.53534 7.55358 1.24337 7.86788C0.951404 8.18583 0.779964 8.46358 0.735978 8.60977C0.422885 9.65865 0.617529 10.7185 0.795896 11.7052C1.12665 13.5472 0.684027 14.9542 0 16.3211C0.874169 16.1127 1.57101 15.5974 1.97415 14.6034C2.26751 13.8798 2.29037 13.2512 2.37002 12.4983C2.44968 11.7454 2.59342 10.883 3.14722 9.82311L3.15414 9.80849L3.16107 9.79387C3.46585 9.33339 4.06849 8.98254 4.89279 8.57322C5.71362 8.1639 6.74918 7.73266 7.87133 7.29045C10.081 6.42064 12.6232 5.51064 14.4553 4.68469C15.148 3.58464 15.6329 1.97149 16 0.503784ZM14.0951 5.55449C12.3045 6.32197 10.0568 7.12964 8.08607 7.90442C6.97084 8.34298 5.94567 8.77057 5.15601 9.16527C4.37327 9.55632 3.82259 9.95467 3.68059 10.1593C3.44507 10.6089 3.29615 11.0072 3.19571 11.3763C6.0842 11.1388 9.95978 10.2142 12.592 8.94234C13.541 7.85691 13.87 6.76052 14.0951 5.55449ZM12.0863 9.8962C9.35022 11.073 5.78289 11.8441 3.0537 12.0378C3.02253 12.2206 3.00175 12.396 2.98444 12.5714C2.97058 12.6993 2.96019 12.8309 2.94634 12.9588C5.45386 13.2329 7.66699 13.105 10.0879 12.7212C11.217 11.8989 11.8127 10.9085 12.0863 9.8962ZM9.371 13.4851C7.21328 13.7811 5.15947 13.8578 2.87361 13.6093C2.84936 13.7738 2.81819 13.9382 2.78009 14.1063C4.02347 14.808 6.17772 15.0492 7.65314 15.0054C8.69909 14.5522 9.09046 14.099 9.371 13.4851ZM2.58891 14.7422C2.54908 14.819 2.48016 14.9871 2.4431 15.0675C2.92902 15.8057 4.13083 16.2443 5.50581 16.5038C6.24006 16.2114 6.48596 15.9373 6.76996 15.6632C5.39498 15.623 3.76717 15.3818 2.58961 14.7422H2.58891Z" fill="#F6F980"/>
</svg>
