<svg width="70" height="70" viewBox="0 0 70 70" fill="none" xmlns="http://www.w3.org/2000/svg">
<path d="M65.9615 0L64.4045 0.185885C44.7743 2.52923 25.1878 3.04405 5.62797 0.190346L5.52565 0.172055H4.03857V1.56173C4.03857 16.8876 5.60031 32.173 10.1728 44.5711C14.7453 56.9689 22.4657 66.5739 34.6121 69.9117L34.9422 70L35.2719 69.9301C48.5949 67.0898 56.4134 57.449 60.701 44.9241C64.9889 32.3992 65.9616 16.8938 65.9616 1.56158V0.000148626L65.9615 0ZM63.1688 3.10889C63.1294 11.5232 62.7594 19.9206 61.7095 27.7342L47.2429 33.8729L59.5394 39.0916C59.0997 40.7876 58.6144 42.4343 58.0708 44.0222C54.7673 53.6719 49.5919 61.1171 41.2712 65.018L35.0488 50.3888L28.989 64.6413C21.4327 60.4601 16.263 53.0525 12.7798 43.6085C12.2019 42.0411 11.6779 40.4172 11.1953 38.7475L22.6738 33.8729L8.74622 27.7199C7.46808 19.948 6.90373 11.586 6.84098 3.15544C14.1461 4.15327 21.4466 4.691 28.7427 4.8516L35.0769 19.7504L41.448 4.76327C48.6928 4.51284 55.9337 3.93675 63.1686 3.10889H63.1688ZM10.3167 6.64056C10.3167 13.1703 10.6617 19.6817 11.5016 25.8472L29.7834 33.924L14.7127 40.3229C17.4451 48.606 21.6585 55.4076 27.9105 59.5112L35.0768 42.6514L42.4331 59.9573C49.2799 56.0635 53.5088 49.1721 56.077 40.6902L40.1325 33.924L58.9163 25.9496C59.5968 19.7303 59.8181 13.1733 59.8181 6.64071C54.3704 7.29116 48.9216 7.77535 43.4742 8.04451L35.0766 27.8039L26.7166 8.14162C21.2489 7.92108 15.7844 7.43823 10.317 6.64071L10.3167 6.64056Z" fill="url(#paint0_radial_3022_14346)"/>
<defs>
<radialGradient id="paint0_radial_3022_14346" cx="0" cy="0" r="1" gradientUnits="userSpaceOnUse" gradientTransform="translate(35.0001 35) rotate(89.9999) scale(44.775 45.0043)">
<stop stop-color="#676CD4"/>
<stop offset="1" stop-color="#6DC79C"/>
</radialGradient>
</defs>
</svg>
