<svg width="70" height="70" viewBox="0 0 70 70" fill="none" xmlns="http://www.w3.org/2000/svg">
<path d="M37.7129 7L10.9847 9.50607L33.3988 12.3077C34.1348 10.3687 35.2816 8.76937 36.6755 7.68103C37.0021 7.42611 37.3491 7.19814 37.7129 7ZM40.5958 8.86109C39.8556 8.88522 39.0706 9.19485 38.2875 9.80625C37.1486 10.6956 36.1058 12.2157 35.5503 14.1218C34.9949 16.0278 35.0449 17.9157 35.5083 19.3443C35.9718 20.7731 36.7774 21.6805 37.7808 22.0183C38.7843 22.3561 39.9273 22.1049 41.0662 21.2156C42.2051 20.3264 43.2481 18.8063 43.8034 16.9002C44.359 14.994 44.3092 13.1062 43.8458 11.6775C43.3823 10.2489 42.5768 9.34152 41.5734 9.0037C41.2587 8.8979 40.9276 8.8495 40.5958 8.86109ZM64.8498 10.2399C61.3446 12.2676 58.135 13.1905 52.1692 12.7477L47.2803 31.0478C47.1822 31.4377 47.2341 31.92 47.5597 32.628C47.8858 33.3367 48.4835 34.211 49.2803 35.1874C50.7324 36.9669 52.8456 39.1355 55.0327 41.618C57.1492 40.8185 59.1364 39.7533 60.6979 38.6831C62.4191 37.5037 63.6392 36.2192 63.8908 35.7847L70 18.5997C67.5654 16.4755 65.716 13.6612 64.8498 10.2399ZM22.9748 17.6914L1.22498 20.8548L14.2073 22.7428L14.521 22.0084L22.9748 17.6914ZM64.5874 18.0293L67.05 18.9129L61.3629 34.7629L55.9536 37.5511L54.7548 35.2256L59.2484 32.9095L64.5874 18.0293ZM26.8157 18.6681L16.5551 23.9074L12.3072 33.8535L15.1008 35.134L18.7211 26.7372L27.3411 23.3978L25.2039 34.4389L25.0639 34.6536C20.3069 41.948 14.648 48.232 7.84355 54.1731L3.99707 60.7788L6.47131 61.832L11.1048 55.4376L11.3054 55.3059C17.916 50.9636 22.3429 46.2449 27.6232 41.5702L28.2822 40.987L29.0709 41.3774C32.4673 43.0594 35.3119 44.8832 38.099 46.8584L39.3962 47.7776L29.3653 57.3198L32.9483 63.1044L35.5169 61.606L32.5983 57.4664L33.7938 56.739C38.1378 54.0954 41.0599 51.0073 44.251 47.1393C40.8127 41.9644 38.1448 39.9536 33.8441 36.7797L35.2843 35.7291C40.3289 32.0497 40.8273 27.8103 41.3329 24.1801C39.9951 24.8257 38.4986 25.0192 37.0486 24.531C35.0879 23.8711 33.7163 22.1366 33.0562 20.1014C33.0315 20.0255 33.0095 19.9481 32.9866 19.8711L26.8157 18.6681ZM43.7681 25.2153C43.5711 26.2367 43.2849 27.2751 42.8825 28.3186L44.9257 29.7237L45.7889 26.4933L43.7681 25.2153ZM18.4394 39.3848L0 41.9945L14.4884 44.0448C15.8595 42.5382 17.1773 40.9839 18.4394 39.3848ZM31.7811 51.4107L17.8418 54.5262L26.4773 56.4562L31.7811 51.4107Z" fill="url(#paint0_radial_3053_4359)"/>
<defs>
<radialGradient id="paint0_radial_3053_4359" cx="0" cy="0" r="1" gradientUnits="userSpaceOnUse" gradientTransform="translate(63.5 27.5) rotate(168.541) scale(37.7525 47.1028)">
<stop stop-color="#4F9AE0"/>
<stop offset="1" stop-color="white"/>
</radialGradient>
</defs>
</svg>
