<svg width="70" height="70" viewBox="0 0 70 70" fill="none" xmlns="http://www.w3.org/2000/svg">
<g clip-path="url(#clip0_3022_14344)">
<path d="M58.2062 0.29541L0 13.7985L37.1275 53.0239L28.3308 61.8251L70 69.7047L62.1248 28.0137L57.4735 32.6676L62.9035 45.1801L51.2177 32.2773L39.327 20.5969L45.3761 32.4483L25.4145 15.5234L58.2063 0.29541H58.2062ZM31.3437 28.7822C33.0367 28.7822 34.4087 30.1546 34.4087 31.8476C34.4087 32.2106 34.3453 32.5589 34.2296 32.8821L39.4714 37.9263L44.346 33.3834L46.2245 35.3994L43.6627 37.7866L64.0528 57.4916L66.8422 66.4155L57.9194 63.8429L37.1955 43.8135L34.5273 46.2995L32.6488 44.2839L37.4524 39.8076L32.23 34.7823C31.9494 34.8669 31.652 34.9131 31.3439 34.9131C29.6512 34.9131 28.2789 33.5403 28.2789 31.8476C28.2789 30.1546 29.651 28.7822 31.3439 28.7822H31.3437ZM41.5004 39.9318L39.589 41.9169L60.0189 61.5874L61.9304 59.6023L41.5004 39.9318Z" fill="url(#paint0_linear_3022_14344)"/>
</g>
<defs>
<linearGradient id="paint0_linear_3022_14344" x1="70" y1="69.7047" x2="27.0112" y2="0.295409" gradientUnits="userSpaceOnUse">
<stop stop-color="#EA2C2C"/>
<stop offset="1" stop-color="#9A99C6"/>
</linearGradient>
<clipPath id="clip0_3022_14344">
<rect width="70" height="70" fill="white"/>
</clipPath>
</defs>
</svg>
