<svg width="25" height="26" viewBox="0 0 25 26" fill="none" xmlns="http://www.w3.org/2000/svg">
<g clip-path="url(#clip0_1147_2410)">
<path fill-rule="evenodd" clip-rule="evenodd" d="M21.4567 4.23961C21.4567 5.10845 21.1745 5.90648 20.7031 6.53365C20.4016 6.93475 20.4671 7.6385 20.7935 8.01959C21.2058 8.5009 21.4575 9.14335 21.4575 9.84894C21.4575 10.9182 20.8794 11.8425 20.0406 12.2807C19.6986 12.4594 19.4642 12.8475 19.4885 13.2326C19.4924 13.2939 19.4944 13.3559 19.4944 13.4183C19.4944 14.6745 18.6965 15.7306 17.6155 16.0335C17.4815 16.0711 17.3567 16.1385 17.2602 16.2387C17.2377 16.2621 17.215 16.2853 17.1922 16.3083C17.0682 16.4332 16.9938 16.6002 16.9938 16.7762V19.6223C16.9938 19.7517 17.0376 19.876 17.0945 19.9921C17.1817 20.1702 17.231 20.373 17.231 20.5882C17.231 21.2961 16.6968 21.8699 16.0379 21.8699C15.3789 21.8699 14.8447 21.2961 14.8447 20.5882C14.8447 20.3717 14.8947 20.1678 14.9829 19.989C15.0404 19.8722 15.0847 19.7472 15.0847 19.6171V18.6033C15.0847 18.188 14.6634 17.9027 14.261 18.0056V18.0056C13.9856 18.076 13.7766 18.3164 13.7766 18.6007V22.1463C13.7766 22.2729 13.8176 22.3951 13.8762 22.5073C14.003 22.75 14.0753 23.0299 14.0753 23.328C14.0753 24.2553 13.3755 25.0071 12.5122 25.0071C11.649 25.0071 10.9491 24.2553 10.9491 23.328C10.9491 23.0159 11.0284 22.7237 11.1665 22.4733C11.2306 22.357 11.2756 22.2293 11.2756 22.0964V18.4658C11.2756 18.1996 11.0935 17.9703 10.8408 17.8867C10.6998 17.84 10.5608 17.7883 10.424 17.7317C10.211 17.6436 9.96644 17.794 9.96644 18.0245V18.0245C9.96644 18.0875 9.98668 18.1485 10.0187 18.2027C10.1358 18.401 10.2036 18.6362 10.2036 18.8884C10.2036 19.5963 9.66945 20.1702 9.01049 20.1702C8.35152 20.1702 7.81733 19.5963 7.81733 18.8884C7.81733 18.672 7.86728 18.468 7.95547 18.2892C8.01304 18.1725 8.05732 18.0475 8.05732 17.9173V16.2734C8.05732 16.1186 7.99966 15.97 7.90104 15.8506C6.88421 14.6203 6.26668 13.0005 6.26668 11.2258C6.26668 10.3976 6.40116 9.60313 6.64795 8.86625C6.7565 8.54212 6.6139 8.18321 6.35268 7.96275C5.7996 7.49596 5.44434 6.77091 5.44434 5.95672C5.44434 4.54862 6.50692 3.40714 7.81768 3.40714C8.55319 3.40714 9.21056 3.76656 9.64588 4.33083C9.87106 4.62269 10.267 4.77528 10.6121 4.64566C11.2826 4.39382 12.0033 4.25691 12.7538 4.25691C13.3063 4.25691 13.8427 4.33111 14.3548 4.47076C14.5037 4.51136 14.6531 4.39395 14.6531 4.23961V4.23961C14.6531 2.22134 16.1762 0.585205 18.0549 0.585205C19.9337 0.585205 21.4567 2.22134 21.4567 4.23961Z" fill="#D9D941"/>
<ellipse cx="10.7262" cy="1.91126" rx="1.77209" ry="1.90369" fill="#D9D941"/>
<ellipse cx="23.0063" cy="18.2621" rx="1.99361" ry="2.14165" fill="#D9D941"/>
<ellipse cx="2.72143" cy="14.1494" rx="2.72143" ry="2.92352" fill="#D9D941"/>
<ellipse cx="23.0063" cy="18.2621" rx="1.99361" ry="2.14165" fill="#D9D941"/>
</g>
<defs>
<clipPath id="clip0_1147_2410">
<rect width="25" height="25" fill="white" transform="translate(0 0.00756836)"/>
</clipPath>
</defs>
</svg>
