<svg width="25" height="26" viewBox="0 0 25 26" fill="none" xmlns="http://www.w3.org/2000/svg">
<g clip-path="url(#clip0_1147_2477)">
<path d="M11.5023 0.00762939C1.39492 0.0336539 -5.58186 13.4158 6.06128 21.2923C6.72905 22.5522 8.76501 23.085 11.7423 23.4824C13.9038 23.7761 14.1829 22.8896 13.7737 21.6785C12.9606 19.2715 10.9219 18.0739 7.22836 18.6768C-2.02019 11.4832 6.05943 1.20565 14.5156 3.55985C23.6043 6.09001 21.5776 14.1756 17.3535 18.146C13.4934 21.7743 15.2986 24.6939 18.5564 24.9281C22.5515 25.6048 26.0197 21.8251 24.7239 18.8312C25.0596 21.6275 19.7985 25.2243 17.8264 23.1686C16.5114 20.7637 21.753 19.1801 23.3764 14.5479C25.8839 7.39366 22.7436 1.80359 13.5628 0.186804C12.8648 0.063937 12.1771 0.00584185 11.5023 0.00762939ZM8.87712 20.2737C8.93662 20.274 8.99962 20.279 9.0643 20.2868C9.75368 20.3696 10.303 20.9148 10.3233 21.2841C10.3335 21.4688 10.27 21.5835 10.1089 21.6932C9.94799 21.8029 9.67272 21.8792 9.32803 21.8378C8.63859 21.755 8.0893 21.2083 8.06899 20.8388C8.05876 20.6541 8.12398 20.5411 8.28503 20.4314C8.40573 20.3492 8.58921 20.2845 8.81924 20.2752C8.83841 20.2746 8.85724 20.2736 8.87712 20.2737Z" fill="white"/>
<path d="M11.7785 8.4129L12.6593 5.00763L14.0315 5.32398L13.2332 8.40391C13.5692 8.18711 13.9494 8.04334 14.2959 7.97146C16.7177 7.47226 18.7128 9.19686 18.7496 11.8203C18.7863 14.4437 16.2058 17.4741 14.898 17.4741C13.5903 17.4741 13.0857 16.8629 12.6759 16.547C12.2584 16.9219 11.5057 17.5076 10.3806 17.5076C9.25547 17.5076 6.28718 14.5459 6.25045 11.9229C6.21826 9.62724 7.90987 7.98915 9.91312 7.92247V7.92033C10.1993 7.91355 10.499 7.94322 10.8033 8.00056C11.1311 8.06217 11.4645 8.2125 11.7785 8.4129Z" fill="#992E2E"/>
</g>
<defs>
<clipPath id="clip0_1147_2477">
<rect width="25" height="25" fill="white" transform="translate(0 0.00756836)"/>
</clipPath>
</defs>
</svg>
