<svg width="25" height="26" viewBox="0 0 25 26" fill="none" xmlns="http://www.w3.org/2000/svg">
<g clip-path="url(#clip0_1147_2464)">
<path d="M4.84298 0.00756836C3.3915 0.00756836 2.20702 1.35358 2.20702 3.05262C2.20702 4.75183 3.3915 6.09964 4.84298 6.09964C6.29456 6.09964 7.47893 4.75177 7.47893 3.05262C7.47893 1.35346 6.29456 0.00756836 4.84298 0.00756836ZM21.2653 0.764802C21.1764 0.764222 21.0866 0.769323 20.9964 0.779294C20.6743 0.814654 20.3854 0.920445 20.1178 1.07452C21.5621 2.40465 22.4686 4.15145 23.034 6.0761C23.6381 5.4624 23.9867 4.54314 23.8946 3.52192C23.752 1.93848 22.5979 0.773555 21.2652 0.764802H21.2653ZM13.9966 7.60315C13.9746 7.60315 13.9522 7.60402 13.9295 7.60489C13.3292 7.63074 12.4758 8.01083 11.3427 9.01976C11.5447 9.44119 11.6899 9.92482 11.7901 10.4508C11.9124 11.0924 11.9701 11.8034 11.9623 12.5487C13.1923 13.8601 13.9814 15.6851 14.3786 17.5538C15.3969 15.4688 15.9584 12.2236 15.6523 10.0288C15.4707 8.72639 15.0292 7.89791 14.4064 7.67207C14.2872 7.62883 14.151 7.60344 13.9966 7.60315ZM18.3964 8.09761C17.8635 8.10619 17.2116 8.3158 16.4048 8.82221C16.4998 9.15187 16.5708 9.50275 16.6212 9.86389C16.7275 10.6266 16.7521 11.465 16.7031 12.3275C18.1199 13.8057 19.0626 16.0235 19.4866 18.2565C20.594 16.5406 21.1579 13.4187 20.785 11.1102C20.573 9.7985 20.0841 8.80059 19.3981 8.36948C19.1194 8.19424 18.7904 8.09141 18.3965 8.09761H18.3964ZM9.38699 8.63573C8.83499 8.63544 7.98823 9.06863 6.8773 10.391C6.95053 10.5454 7.01463 10.7088 7.06914 10.8801C7.32355 11.6794 7.40355 12.6639 7.28715 13.7006C7.28741 13.701 7.28689 13.702 7.28715 13.7023C8.3515 15.4237 9.03936 16.9898 9.42634 18.3579C10.7648 16.0684 11.229 12.7701 10.8296 10.6736C10.7165 10.0796 10.5374 9.58843 10.3231 9.24972C10.1087 8.91107 9.8794 8.72877 9.60836 8.661C9.54059 8.64407 9.46725 8.63573 9.38699 8.63573ZM21.5438 9.17193C21.4551 9.17239 21.3653 9.18016 21.2734 9.19361C21.4944 9.7181 21.6494 10.3049 21.7488 10.9199C21.8492 11.541 21.8972 12.1992 21.8947 12.8691C23.26 14.7212 23.8468 17.4115 23.7782 19.8905C25.0479 18.0324 25.257 15.371 24.7372 13.1408C24.4259 11.8052 23.8532 10.6469 23.1619 9.94899C22.665 9.44739 22.1363 9.16834 21.5439 9.17187L21.5438 9.17193ZM5.17576 10.2425C4.76041 10.2657 4.03089 10.7033 3.14149 11.9598C4.3022 13.6727 4.97554 15.2552 5.28398 16.6207C6.35452 14.7816 6.54347 12.4937 6.14459 11.2405C6.02918 10.8779 5.87213 10.6097 5.71014 10.4525C5.54805 10.2954 5.39341 10.2302 5.17571 10.2424L5.17576 10.2425ZM1.52509 12.4108C0.0138074 12.4479 -0.411774 14.6626 0.416938 16.5519C1.19157 15.821 1.85756 14.549 1.84806 12.4344C1.73549 12.416 1.62774 12.4083 1.52514 12.4109L1.52509 12.4108ZM2.78405 13.2749C2.63455 15.0543 2.02038 16.3425 1.235 17.1787C1.79314 18.7902 2.47078 19.6949 2.99718 20.0372C3.27798 20.2198 3.50077 20.2537 3.67912 20.2165C3.85737 20.1794 4.0151 20.0716 4.16434 19.8397C4.46261 19.3759 4.64705 18.3852 4.36263 17.0193C4.14263 15.9627 3.64927 14.6874 2.78405 13.2749ZM16.5573 13.7531C16.2618 15.7655 15.5906 17.7622 14.6212 19.1333C14.7258 20.2172 14.7029 21.2714 14.5573 22.2019C14.4575 22.8396 14.2952 23.4388 14.0605 23.9482C15.6904 25.1182 16.7526 25.1773 17.4325 24.767C18.1234 24.3502 18.5901 23.2982 18.7227 21.8559C18.9536 19.3438 18.1142 15.8732 16.5573 13.7531ZM11.8606 14.0575C11.613 16.0642 10.9134 18.1527 9.72796 19.7383C9.90631 20.9218 9.83225 21.916 9.51326 22.6711C10.1483 23.4336 10.7115 23.916 11.1739 24.1746C11.6679 24.4511 12.027 24.4773 12.3132 24.3848C12.8855 24.1998 13.3822 23.3571 13.5918 22.0172C13.9531 19.7074 13.3761 16.261 11.8607 14.0575L11.8606 14.0575ZM21.7717 14.6389C21.5037 16.6091 20.8012 18.4918 19.6833 19.655C19.7574 20.4544 19.7634 21.2358 19.6964 21.9646C19.6038 22.9715 19.3673 23.9053 18.9407 24.6311C19.9064 25.1746 20.5859 25.0812 21.1537 24.6584C21.7945 24.181 22.318 23.1404 22.5847 21.8071C23.0235 19.6147 22.753 16.7159 21.7717 14.6389L21.7717 14.6389ZM6.99045 15.1842C6.69281 16.2089 6.1993 17.2246 5.48883 18.1133C5.52318 19.0526 5.34992 19.839 4.99206 20.4212C5.76475 21.7654 6.55401 22.5156 7.16083 22.7907C7.82336 23.0912 8.20016 22.9561 8.50666 22.4484C8.81317 21.9406 8.9751 20.905 8.67872 19.4503C8.43847 18.2706 7.90761 16.8249 6.99035 15.1843L6.99045 15.1842Z" fill="#E6E6E6"/>
</g>
<defs>
<clipPath id="clip0_1147_2464">
<rect width="25" height="25" fill="white" transform="translate(0 0.00756836)"/>
</clipPath>
</defs>
</svg>
