<svg width="35" height="41" viewBox="0 0 35 41" fill="none" xmlns="http://www.w3.org/2000/svg">
<path d="M12.8047 0.00794067L7.68663 9.31048L17.0469 14.3972L18.7449 11.3109L14.574 9.04422C15.536 8.84172 16.5167 8.73991 17.5 8.74044C25.2313 8.74044 31.4607 14.9316 31.4607 22.6153C31.4607 30.2991 25.2313 36.4903 17.5 36.4903C9.76874 36.4903 3.53933 30.2991 3.53933 22.6153C3.53933 21.007 3.81313 19.4645 4.31562 18.03L1.13809 16.451C0.403679 18.3684 0 20.446 0 22.6153C0 32.2001 7.85602 40.0078 17.5 40.0078C27.144 40.0078 35 32.2001 35 22.6153C35 13.0306 27.144 5.22286 17.5 5.22286C16.2118 5.22286 14.9561 5.36356 13.7463 5.62816L15.9101 1.69531L12.8047 0.00794067ZM23.056 12.7474L16.6152 22.3491V33.5589H18.3848V22.8816L24.5283 13.7229L23.056 12.7474Z" fill="white"/>
</svg>
