<svg width="13" height="37" viewBox="0 0 13 37" fill="none" xmlns="http://www.w3.org/2000/svg">
<mask id="mask0_1170_1066" style="mask-type:alpha" maskUnits="userSpaceOnUse" x="0" y="0" width="13" height="37">
<rect y="0.00378418" width="13" height="36" fill="#D9D9D9"/>
</mask>
<g mask="url(#mask0_1170_1066)">
<path d="M-0.168643 1.32556L-11.1685 3.86401C-11.5088 3.94254 -11.7499 4.24556 -11.7499 4.59481V21.2184C-11.7499 21.4077 -11.6783 21.59 -11.5495 21.7287L-0.54959 33.5749C-0.252869 33.8944 0.252875 33.8944 0.549602 33.5749L11.5496 21.7287L12.4656 22.5793L11.5496 21.7287C11.6784 21.59 11.75 21.4077 11.75 21.2184V4.59481C11.75 4.24557 11.5089 3.94255 11.1686 3.86402L0.168646 1.32555C0.0576744 1.29995 -0.0576725 1.29995 -0.168643 1.32556Z" fill="#004384" fill-opacity="0.5" stroke="#99CCFF" stroke-width="2.5"/>
<circle cy="16.5038" r="7.5" fill="#99CCFF"/>
</g>
</svg>
