<svg width="20" height="20" viewBox="0 0 20 20" fill="none" xmlns="http://www.w3.org/2000/svg">
<g clip-path="url(#clip0_3630_9792)">
<path fill-rule="evenodd" clip-rule="evenodd" d="M8.80823 4.11529L9.67022 10.0899L9.59829 10.0476L8.19007 11.0192L9.04205 16.0228C8.80163 16.2175 8.51656 16.3191 8.21283 16.3191H2.60337C1.69224 16.3033 0.727604 15.864 0.824878 14.885C1.50039 15.049 2.3818 15.0649 3.54909 14.9697L3.46262 13.9853C1.93866 14.1123 1.01943 13.98 0.619522 13.7684C0.41957 13.6625 0.338509 13.562 0.279064 13.4297C0.123966 13.0169 0.227725 12.3448 0.576289 12.0379C0.738413 11.9585 1.12751 11.9056 1.78195 11.9108C1.9873 11.9267 2.20347 11.932 2.43584 11.932L2.42503 10.9424C2.31943 10.9449 2.2185 10.9359 2.11463 10.9266C1.99526 10.916 1.87201 10.905 1.73331 10.9106C0.954577 10.8366 0.624926 10.6143 0.495228 10.4079C0.23421 9.95807 0.617901 8.30164 1.37069 8.22226C1.68413 8.1958 2.26832 8.38103 3.06272 8.80968C3.28429 8.94728 3.52747 9.07958 3.80308 9.21188L4.23541 8.31752C3.54909 8 2.93302 7.60838 2.72226 6.86326C2.70605 6.19487 4.04086 4.99727 4.82986 5.2587C5.13789 5.391 5.59184 5.94985 5.95391 7.34007L6.93746 7.09346C6.7213 6.27213 6.47271 5.63444 6.15927 5.16873C5.86745 4.52839 5.97013 4.22145 6.16467 3.99389C6.71049 3.40912 7.94803 3.50385 8.54248 3.86688C8.63748 3.93803 8.72606 4.02112 8.80823 4.11529ZM10.9012 5.40862L11.818 11.7636L10.4061 12.7115L10.3906 12.7024L10.867 15.5003C11.1821 16.0348 11.6354 16.3191 12.0822 16.3191H17.6916C18.0321 16.3191 18.686 16.1128 19.0751 15.7794C19.3399 15.5359 19.5452 15.2131 19.4804 14.8744C18.7995 15.049 17.9078 15.0702 16.7027 14.9697L16.7891 13.9853C18.3131 14.1123 19.2264 13.98 19.6263 13.7684C20.064 13.3926 20.2153 12.2972 19.6695 12.0379C19.5128 11.9585 19.1183 11.9056 18.4698 11.9108C18.2645 11.9267 18.0483 11.932 17.8159 11.932L17.8267 10.9424C17.9058 10.9388 17.9861 10.9346 18.0661 10.9304C18.2214 10.9222 18.3758 10.9141 18.5185 10.9106C19.2966 10.8366 19.6263 10.6143 19.7506 10.4079C20.0316 9.73051 19.4912 8.29106 18.8805 8.22226C18.5671 8.1958 17.9835 8.38103 17.189 8.80968C16.9675 8.94728 16.7243 9.07958 16.4487 9.21188L16.0164 8.31752C16.213 8.23444 16.3684 8.14057 16.5258 8.04554C16.5889 8.00741 16.6523 7.96909 16.7189 7.9312C17.3404 7.52424 17.5187 7.15115 17.5349 6.8622C17.4809 6.12872 16.1407 4.94647 15.4273 5.2587C15.3192 5.30104 15.1949 5.40159 15.0598 5.57093C14.714 6.10279 14.433 6.82568 14.2924 7.33902L13.3197 7.09293C13.5575 6.17529 13.8385 5.48626 14.2006 5.00997C14.4113 4.48076 14.3141 4.20028 14.1357 3.99389C13.8007 3.72294 13.2927 3.57264 12.7955 3.57423C12.4118 3.57529 12.0389 3.66843 11.7579 3.86688C11.4823 4.07327 11.2607 4.38021 11.0932 4.76654C11.0167 4.98176 10.9534 5.19557 10.9012 5.40862Z" fill="#6E90D0"/>
</g>
<defs>
<clipPath id="clip0_3630_9792">
<rect width="20" height="20" fill="white"/>
</clipPath>
</defs>
</svg>
