<svg width="24" height="24" viewBox="0 0 24 24" fill="none" xmlns="http://www.w3.org/2000/svg">
<g clip-path="url(#clip0_3825_15056)">
<path d="M15.3519 4.27931C14.8914 4.28058 14.444 4.39235 14.1068 4.63049C13.776 4.87816 13.5102 5.24649 13.3091 5.71008C12.6866 7.46027 12.7968 9.13236 12.7838 10.9746V10.981H11.5712V10.9746C11.5517 9.28668 11.649 7.14402 11.0459 5.71008C10.8449 5.24649 10.579 4.87816 10.2482 4.63049C9.5349 4.19485 8.04985 4.08118 7.39487 4.78291C7.16142 5.05598 7.0382 5.42431 7.38839 6.19272C7.76452 6.75156 8.06282 7.51679 8.32222 8.50239L7.14196 8.79832C6.70747 7.13005 6.16274 6.45944 5.7931 6.30067C4.8463 5.98696 3.24452 7.42408 3.26398 8.22614C3.51689 9.12029 4.25617 9.59023 5.07976 9.97126L4.56096 11.0445C4.23023 10.8857 3.93841 10.727 3.67253 10.5619C2.71924 10.0475 2.01822 9.8252 1.6421 9.85695C0.738747 9.95221 0.278317 11.9399 0.591539 12.4797C0.747177 12.7274 1.14276 12.9941 2.07724 13.083C2.38851 13.0703 2.63494 13.1275 2.90731 13.1211L2.92028 14.3086C2.64142 14.3086 2.38203 14.3023 2.1356 14.2832C1.35028 14.2769 0.883361 14.3404 0.688813 14.4357C0.270535 14.804 0.146025 15.6105 0.332142 16.1058C0.403476 16.2646 0.50075 16.3853 0.740692 16.5123C1.22058 16.7663 2.32366 16.9251 4.15241 16.7726L4.25617 17.9538C2.85543 18.0681 1.79774 18.0491 0.987119 17.8522C0.870391 19.0271 2.02795 19.5542 3.12131 19.5732H9.85266C10.6373 19.5732 11.3183 19.008 11.5841 17.9792L12.1029 15.9471L12.7514 17.9475C13.0951 19.0017 13.802 19.5732 14.4959 19.5732H21.2272C21.6358 19.5732 22.4204 19.3255 22.8874 18.9255C23.2051 18.6333 23.4516 18.246 23.3737 17.8395C22.5566 18.0491 21.4866 18.0745 20.0405 17.9538L20.1442 16.7726C21.973 16.9251 23.0689 16.7663 23.5488 16.5123C24.0741 16.0614 24.2557 14.7468 23.6007 14.4357C23.4126 14.3404 22.9392 14.2769 22.161 14.2832C21.9146 14.3023 21.6552 14.3086 21.3764 14.3086L21.3893 13.1211C21.6682 13.1084 21.96 13.0894 22.2194 13.083C23.1532 12.9941 23.5488 12.7274 23.698 12.4797C24.0352 11.6668 23.3867 9.93951 22.6539 9.85695C22.2778 9.8252 21.5774 10.0475 20.6241 10.5619C20.3582 10.727 20.0664 10.8857 19.7357 11.0445L19.2169 9.97126C19.5476 9.83155 19.7811 9.66644 20.0599 9.50767C20.8057 9.01932 21.0197 8.57161 21.0392 8.22487C20.9743 7.3447 19.366 5.926 18.51 6.30067C18.3803 6.35148 18.2312 6.47214 18.0691 6.67535C17.654 7.31358 17.3168 8.18106 17.1482 8.79705L15.9809 8.50176C16.2663 7.40058 16.6035 6.57375 17.038 6.0022C17.2909 5.36715 17.1741 5.03058 16.9601 4.78291C16.5581 4.45776 15.9485 4.27741 15.3519 4.27931Z" fill="#6E94DD"/>
</g>
<defs>
<clipPath id="clip0_3825_15056">
<rect width="24" height="24" fill="white"/>
</clipPath>
</defs>
</svg>
