<svg width="30" height="30" viewBox="0 0 30 30" fill="none" xmlns="http://www.w3.org/2000/svg">
<path fill-rule="evenodd" clip-rule="evenodd" d="M8.37891 14.7554C8.73603 15.3599 9.84993 16.807 10.2731 17.3543C10.9832 18.1618 11.7645 18.9077 12.6052 19.606C13.1757 20.0382 14.6596 21.1592 15.2728 21.5576C21.0313 15.4021 26.0304 7.84449 29.5122 0.548828C22.2238 3.99526 14.5757 9.00671 8.37891 14.7554ZM4.64065 14.12L4.37891 11.0247L7.08087 12.1704L6.90456 14.2315L6.88939 14.3938L6.96523 14.5391C8.89707 18.2578 11.9878 20.9146 15.5353 23.0853L15.6946 23.1835L15.8804 23.1684L17.949 22.9908L19.0809 25.6577L15.9581 25.3974C11.1994 22.8098 7.5611 18.9129 4.64065 14.12ZM2.19636 29.5577C1.24197 29.5577 0.478516 28.7979 0.478516 27.8478C0.478516 26.9962 1.09192 26.2982 1.90622 26.1624L2.06549 26.321L3.6487 27.8987L3.88951 28.1383C3.75227 28.9481 3.05101 29.5577 2.19636 29.5577ZM3.17871 25.8309L4.21016 26.8577C6.59887 25.8983 8.2561 24.2334 9.51338 22.1014C8.9925 21.6081 8.48812 21.0958 8.00042 20.565C5.87061 21.9232 4.22084 23.6776 3.17871 25.8309Z" fill="white"/>
</svg>
