<svg width="30" height="30" viewBox="0 0 30 30" fill="none" xmlns="http://www.w3.org/2000/svg">
<path fill-rule="evenodd" clip-rule="evenodd" d="M8 14.3978C8.35712 15.0022 9.47103 16.4493 9.89422 16.9966C10.6043 17.8041 11.3856 18.5501 12.2263 19.2484C12.7968 19.6805 14.2807 20.8015 14.8939 21.2C20.6524 15.0444 25.6515 7.48682 29.1333 0.191162C21.8449 3.6376 14.1968 8.64905 8 14.3978ZM4.26174 13.7624L4 10.667L6.70197 11.8127L6.52565 13.8738L6.51048 14.0361L6.58632 14.1814C8.51816 17.9001 11.6089 20.557 15.1564 22.7276L15.3156 22.8258L15.5015 22.8107L17.5701 22.6332L18.702 25.3L15.5792 25.0397C10.8205 22.4522 7.1822 18.5552 4.26174 13.7624ZM1.81746 29.2C0.863063 29.2 0.0996094 28.4402 0.0996094 27.4902C0.0996094 26.6386 0.713017 25.9405 1.52731 25.8047L1.68658 25.9633L3.26979 27.5411L3.51061 27.7807C3.37336 28.5905 2.6721 29.2 1.81746 29.2ZM2.7998 25.4732L3.83125 26.5C6.21996 25.5406 7.8772 23.8757 9.13447 21.7437C8.61359 21.2505 8.10921 20.7381 7.62152 20.2074C5.4917 21.5656 3.84193 23.3199 2.7998 25.4732Z" fill="#79A2F2"/>
</svg>
