<svg width="30" height="30" viewBox="0 0 30 30" fill="none" xmlns="http://www.w3.org/2000/svg">
<g clip-path="url(#clip0_1098_2074)">
<path d="M13.0057 13.4292C11.8997 14.5351 11.8997 16.3345 13.0057 17.4405C14.1116 18.5464 15.911 18.5464 17.017 17.4405C18.123 16.3345 18.123 14.5351 17.017 13.4292C15.911 12.3232 14.1116 12.3232 13.0057 13.4292Z" fill="white"/>
<path d="M23.9216 5.18181L22.9962 6.10726C18.41 2.17431 11.602 2.17431 7.0158 6.10722L6.09039 5.18181C5.721 4.81242 5.1224 4.81242 4.75301 5.18181C4.38362 5.55119 4.38362 6.14979 4.75301 6.51918L5.67846 7.44464C1.74551 12.0308 1.74551 18.8388 5.67842 23.425L4.75301 24.3504C4.38362 24.7198 4.38362 25.3184 4.75301 25.6878C5.1224 26.0572 5.721 26.0572 6.09039 25.6878L7.01584 24.7624C11.6021 28.6954 18.4101 28.6954 22.9963 24.7624L23.9217 25.6878C24.2911 26.0572 24.8897 26.0572 25.2591 25.6878C25.6285 25.3184 25.6285 24.7198 25.2591 24.3504L24.3337 23.425C28.2666 18.8388 28.2666 12.0308 24.3337 7.44456L25.2591 6.5191C25.6283 6.14995 25.6285 5.55111 25.2591 5.18172C24.8896 4.81242 24.2908 4.81266 23.9216 5.18181ZM8.35318 7.4446C12.1952 4.24133 17.8169 4.24133 21.6589 7.4446L20.3161 8.78746C17.2218 6.31248 12.7904 6.31248 9.69612 8.78746L8.35318 7.4446ZM7.0158 8.78197L8.3587 10.1249C5.88368 13.2191 5.88368 17.6505 8.35866 20.7448L7.0158 22.0877C3.81258 18.2457 3.81258 12.6239 7.0158 8.78197ZM21.6589 23.425C17.8169 26.6283 12.1951 26.6283 8.3531 23.425L9.696 22.0821C12.7902 24.5571 17.2217 24.5571 20.316 22.0821L21.6589 23.425ZM18.3494 18.7782C17.98 19.1476 17.98 19.7462 18.3494 20.1156L18.9646 20.7308C16.6246 22.4817 13.3875 22.4816 11.0474 20.7309L11.6626 20.1156C12.032 19.7462 12.032 19.1476 11.6626 18.7782C11.2932 18.4088 10.6946 18.4088 10.3252 18.7782L9.70998 19.3935C7.95912 17.0534 7.95916 13.8164 9.70998 11.4762L10.3252 12.0914C10.6946 12.4608 11.2932 12.4608 11.6626 12.0914C12.032 11.722 12.032 11.1234 11.6626 10.754L11.0474 10.1388C13.3874 8.38791 16.6245 8.38795 18.9646 10.1388L18.3494 10.7541C17.98 11.1235 17.98 11.7221 18.3494 12.0915C18.7188 12.4608 19.3129 12.4564 19.6823 12.087L20.2975 11.4717C22.0484 13.8118 22.0528 17.0533 20.302 19.3934L19.6868 18.7782C19.3174 18.4088 18.7188 18.4088 18.3494 18.7782ZM22.9962 22.0877L21.6533 20.7448C24.1284 17.6505 24.1239 13.2146 21.6488 10.1203L22.9917 8.77741C26.195 12.6195 26.1995 18.2457 22.9962 22.0877Z" fill="white"/>
</g>
<defs>
<clipPath id="clip0_1098_2074">
<rect width="29" height="29" fill="white" transform="translate(0.5 0.928711)"/>
</clipPath>
</defs>
</svg>
