<svg width="30" height="30" viewBox="0 0 30 30" fill="none" xmlns="http://www.w3.org/2000/svg">
<g clip-path="url(#clip0_1098_2074)">
<path d="M12.6268 13.0715C11.5208 14.1774 11.5208 15.9768 12.6268 17.0828C13.7327 18.1888 15.5321 18.1888 16.6381 17.0828C17.744 15.9768 17.744 14.1774 16.6381 13.0715C15.5321 11.9655 13.7327 11.9655 12.6268 13.0715Z" fill="#79A2F2"/>
<path d="M23.5427 4.82414L22.6173 5.74959C18.0311 1.81664 11.2231 1.81664 6.63689 5.74955L5.71148 4.82414C5.34209 4.45475 4.74349 4.45475 4.3741 4.82414C4.00471 5.19353 4.00471 5.79213 4.3741 6.16152L5.29956 7.08697C1.36661 11.6731 1.36661 18.4811 5.29952 23.0674L4.3741 23.9928C4.00471 24.3622 4.00471 24.9608 4.3741 25.3302C4.74349 25.6995 5.34209 25.6995 5.71148 25.3302L6.63694 24.4047C11.2232 28.3377 18.0312 28.3377 22.6174 24.4047L23.5428 25.3302C23.9122 25.6995 24.5108 25.6995 24.8802 25.3302C25.2496 24.9608 25.2496 24.3622 24.8802 23.9928L23.9547 23.0673C27.8877 18.4811 27.8877 11.6731 23.9547 7.08689L24.8802 6.16144C25.2493 5.79229 25.2496 5.19345 24.8802 4.82406C24.5107 4.45475 23.9119 4.45499 23.5427 4.82414ZM7.97427 7.08693C11.8163 3.88367 17.438 3.88367 21.28 7.08693L19.9372 8.42979C16.8429 5.95481 12.4115 5.95481 9.31721 8.4298L7.97427 7.08693ZM6.63689 8.42431L7.9798 9.76721C5.50478 12.8614 5.50478 17.2929 7.97976 20.3871L6.63689 21.73C3.43367 17.888 3.43367 12.2663 6.63689 8.42431ZM21.28 23.0673C17.438 26.2706 11.8162 26.2706 7.97419 23.0674L9.31709 21.7245C12.4113 24.1995 16.8428 24.1994 19.937 21.7245L21.28 23.0673ZM17.9705 18.4205C17.6011 18.7899 17.6011 19.3885 17.9705 19.7579L18.5857 20.3731C16.2456 22.124 13.0086 22.124 10.6684 20.3732L11.2837 19.7579C11.6531 19.3885 11.6531 18.7899 11.2837 18.4206C10.9143 18.0512 10.3157 18.0512 9.94633 18.4206L9.33107 19.0358C7.58021 16.6957 7.58025 13.4587 9.33107 11.1185L9.94633 11.7337C10.3157 12.1031 10.9143 12.1031 11.2837 11.7337C11.6531 11.3644 11.6531 10.7658 11.2837 10.3964L10.6684 9.78111C13.0085 8.03025 16.2456 8.03029 18.5857 9.78115L17.9705 10.3964C17.6011 10.7658 17.6011 11.3644 17.9705 11.7338C18.3399 12.1032 18.934 12.0987 19.3034 11.7293L19.9186 11.114C21.6695 13.4541 21.6739 16.6956 19.9231 19.0358L19.3079 18.4205C18.9385 18.0511 18.3399 18.0511 17.9705 18.4205ZM22.6173 21.73L21.2744 20.3871C23.7494 17.2929 23.745 12.8569 21.2699 9.76265L22.6128 8.41974C25.8161 12.2618 25.8206 17.888 22.6173 21.73Z" fill="#79A2F2"/>
</g>
<defs>
<clipPath id="clip0_1098_2074">
<rect width="29" height="29" fill="white" transform="translate(0.121094 0.571045)"/>
</clipPath>
</defs>
</svg>
