<svg width="26" height="26" viewBox="0 0 26 26" fill="none" xmlns="http://www.w3.org/2000/svg">
<path d="M2 9L6.23077 3.53846L13 1L19.7692 3.53846L24 9V16L19.7692 22.1538L13 24L6.23077 22.1538L2 16V9Z" fill="#ADADAD"/>
<path d="M6.5 10.5L13 5L19.5 10.5L17.5 18H8.5L6.5 10.5Z" fill="#C9C9C9"/>
<path d="M6.24948 22.15L12.9999 24L19.7695 22.15L17.4995 18L8.49946 18L6.24948 22.15Z" fill="#7B7A7A"/>
<path fill-rule="evenodd" clip-rule="evenodd" d="M2 16L2 9L6.50009 10.5L8.50005 18L6.23005 22.15L2 16ZM24.0001 16L24.0001 9L19.5 10.5L17.5001 18L19.7701 22.15L24.0001 16Z" fill="#898989"/>
<path fill-rule="evenodd" clip-rule="evenodd" d="M7.00877 10.1914V8.30835H7.0088C11.9093 8.30835 12.6509 8.30835 13.7919 9.45746C14.6405 10.7125 14.6547 10.9141 14.6369 16.1154H15.6758V17.9922H6.64746V16.1154H12.5391C12.5391 15.5186 12.5405 15.005 12.5417 14.5605C12.5494 11.8085 12.5497 11.7044 12.1562 10.9141C11.6312 10.1511 10.7371 10.16 8.46618 10.1824C8.03284 10.1867 7.54938 10.1914 7.00877 10.1914ZM17.2939 13.4547V8.30835H19.3938V13.4547H17.2939Z" fill="#F9F9F9"/>
</svg>
