<svg width="25" height="26" viewBox="0 0 25 26" fill="none" xmlns="http://www.w3.org/2000/svg">
<g clip-path="url(#clip0_1147_2434)">
<path d="M11.6698 0.00767815C10.5312 0.00421773 9.34627 0.131649 8.12544 0.416173C5.35211 1.06256 2.16365 4.07406 0.761269 7.1088C0.0601886 8.626 -0.191883 10.1221 0.147946 11.2952C0.43188 12.2755 1.09903 13.0882 2.41121 13.6175C2.06132 12.9943 1.8062 12.3259 1.67206 11.6711L2.66785 11.4634C2.84717 12.3387 3.32597 13.3248 3.9592 14.0656C4.85145 14.2678 5.81526 14.428 6.82055 14.5531C6.47572 13.7332 6.46713 13.0083 6.47899 12.392L7.49505 12.4126C7.4802 13.1813 7.46367 13.7856 8.03714 14.6871C9.02438 14.7789 10.0388 14.8376 11.0565 14.8672C11.0348 14.0863 11.0891 13.3302 11.1584 12.5878L12.1694 12.6839C12.1001 13.4268 12.0509 14.1558 12.0743 14.8879C13.1831 14.899 14.2847 14.8746 15.3468 14.8209C15.4848 14.0162 15.5749 13.2837 15.6663 12.5397L16.6756 12.6667C16.5929 13.3385 16.5092 14.019 16.3883 14.7591C17.4232 14.6854 18.4057 14.5827 19.3058 14.4536C19.6092 13.6634 19.8398 12.881 19.9685 12.1089L20.9693 12.2788C20.8579 12.9465 20.6796 13.6081 20.4543 14.2647C20.9681 14.1697 21.4453 14.0656 21.8731 13.9523C22.378 13.1238 22.7575 12.3092 22.9623 11.5167L23.9461 11.7758C23.8072 12.3136 23.6047 12.8429 23.3531 13.367C24.4266 12.7301 24.9081 11.7847 24.9878 10.6378C25.0939 9.10843 24.376 7.18053 22.9624 5.39902C20.6652 2.50407 16.6041 0.0223988 11.6698 0.00756836V0.00767815ZM8.57059 15.7804C8.48055 16.2066 8.39975 16.6408 8.33103 17.0764C8.08526 18.6342 7.99033 20.2126 8.11691 21.4929C8.24359 22.7731 8.61577 23.7127 9.10415 24.0882C9.97286 24.7561 11.1206 25.0394 12.2237 25.0047C13.3268 24.9701 14.3716 24.6062 14.9882 24.0984C15.4816 23.6923 15.8836 22.4177 15.9227 20.7668C15.9579 19.2836 15.7495 17.5258 15.3518 15.8731C13.1612 15.9857 10.8186 15.9647 8.57048 15.7805L8.57059 15.7804Z" fill="#83B26B"/>
</g>
<defs>
<clipPath id="clip0_1147_2434">
<rect width="25" height="25" fill="white" transform="translate(0 0.00756836)"/>
</clipPath>
</defs>
</svg>
