<svg width="25" height="26" viewBox="0 0 25 26" fill="none" xmlns="http://www.w3.org/2000/svg">
<g clip-path="url(#clip0_1146_2141)">
<path d="M12.4589 -0.0860596C11.0759 0.973502 8.90833 2.12626 6.60534 3.19566C4.24034 4.29396 1.79543 5.25657 -0.0410156 5.83483C0.107827 6.57909 0.608006 8.00689 1.40226 9.68702C2.35032 11.6926 3.65905 14.0878 5.07779 16.3801C6.49653 18.6725 8.0289 20.8656 9.40565 22.4597C10.094 23.2567 10.746 23.9038 11.2992 24.3291C11.8524 24.7543 12.3084 24.9139 12.4589 24.9139C12.6094 24.9139 13.0655 24.7543 13.6187 24.3291C14.1719 23.9038 14.8239 23.2567 15.5122 22.4597C16.889 20.8656 18.4214 18.6725 19.8401 16.3801C21.2588 14.0878 22.5676 11.6926 23.5157 9.68702C24.3099 8.00689 24.8101 6.57909 24.959 5.83483C23.1225 5.25657 20.6776 4.29396 18.3125 3.19566C16.0096 2.12626 13.8419 0.973502 12.4589 -0.0860596ZM12.4589 2.95593L12.9689 3.46779C13.5232 4.02421 15.0538 4.79645 16.6794 5.43682C18.3052 6.07719 20.0358 6.6344 21.1281 6.99993L21.5641 7.1458V7.55489C21.5641 7.97105 21.4263 8.4074 21.2163 8.958C21.0064 9.50861 20.7129 10.1517 20.3593 10.8576C19.6523 12.2694 18.7052 13.9296 17.7197 15.5245C16.7343 17.1195 15.7125 18.6461 14.8489 19.793C14.417 20.3664 14.0271 20.8435 13.6842 21.1997C13.5128 21.3778 13.3552 21.5256 13.188 21.6491C13.0209 21.7725 12.8658 21.9115 12.4909 21.927L12.4589 21.9283L12.427 21.927C12.0521 21.9115 11.897 21.7725 11.7299 21.6491C11.5627 21.5257 11.4051 21.3778 11.2337 21.1996C10.8908 20.8435 10.5009 20.3664 10.069 19.793C9.20541 18.6461 8.18361 17.1195 7.19815 15.5245C6.21269 13.9296 5.26561 12.2694 4.55857 10.8575C4.20505 10.1517 3.91151 9.50861 3.70156 8.958C3.49162 8.4074 3.35384 7.97105 3.35384 7.55489V7.14573L3.78975 6.99993C4.88214 6.6344 6.61271 6.07719 8.23846 5.43682C9.86407 4.79645 11.3947 4.02421 11.949 3.46779L12.4589 2.95593ZM12.4589 4.6822C11.5343 5.37927 10.1966 5.96789 8.79335 6.52061C7.31847 7.10164 5.8597 7.58176 4.77958 7.94009C4.82533 8.11698 4.89275 8.33644 4.98606 8.58119C5.17591 9.07899 5.45614 9.69586 5.79875 10.3798C6.48374 11.7477 7.41788 13.3869 8.38889 14.9585C9.3599 16.53 10.3698 18.0368 11.1993 19.1382C11.614 19.6889 11.9859 20.1396 12.2686 20.4333C12.3493 20.5171 12.397 20.5532 12.4589 20.6085C12.5209 20.5532 12.5686 20.5171 12.6493 20.4333C12.932 20.1396 13.3039 19.6889 13.7186 19.1382C14.5481 18.0368 15.558 16.53 16.529 14.9584C17.5 13.3869 18.4342 11.7477 19.1192 10.3798C19.4618 9.69586 19.742 9.07899 19.9318 8.58119C20.0126 8.37059 20.0815 8.15663 20.1383 7.94009C19.0582 7.58176 17.5994 7.10164 16.1245 6.52061C14.7213 5.96789 13.3836 5.37927 12.4589 4.6822Z" fill="#4588E6"/>
</g>
<defs>
<clipPath id="clip0_1146_2141">
<rect width="25" height="25.0038" fill="white" transform="translate(0 0.00378418)"/>
</clipPath>
</defs>
</svg>
