<svg width="25" height="26" viewBox="0 0 25 26" fill="none" xmlns="http://www.w3.org/2000/svg">
<path fill-rule="evenodd" clip-rule="evenodd" d="M14.5344 2.74616C14.0127 2.64584 13.6502 2.14162 13.6502 1.61038C13.6502 0.308653 13.1391 0.00762939 12.5087 0.00762939C11.8783 0.00762939 11.3672 0.308653 11.3672 1.61038C11.3672 2.14062 11.0048 2.64366 10.4839 2.74296C9.63898 2.90403 8.83039 3.16437 8.07136 3.51105C8.02919 3.53031 7.97941 3.51067 7.96132 3.46799C7.45162 2.26535 6.8616 2.17839 6.27915 2.41418C5.69671 2.64997 5.34242 3.11922 5.85211 4.32186C5.95328 4.56058 5.89397 4.84215 5.69508 5.00847C5.31691 5.32468 4.96206 5.66676 4.63341 6.03191C4.36313 6.3322 3.92178 6.41424 3.54729 6.26264C2.31678 5.76449 1.83665 6.11076 1.5954 6.68001C1.35414 7.24926 1.44312 7.82592 2.67363 8.32407C2.85085 8.39582 2.93888 8.6009 2.86238 8.77612C2.64036 9.28466 2.45924 9.81434 2.32306 10.3612C2.2462 10.6699 1.95798 10.8812 1.63989 10.8812C0.307999 10.8812 0 11.3807 0 11.9968C0 12.613 0.307999 13.1124 1.63989 13.1124C1.85318 13.1124 2.03569 13.2761 2.05035 13.4888C2.1201 14.5007 2.34028 15.4723 2.68922 16.3823C2.69465 16.3965 2.68773 16.4125 2.67363 16.4181C1.44312 16.9163 1.35414 17.4929 1.5954 18.0622C1.83665 18.6314 2.31678 18.9777 3.54729 18.4795C3.65741 18.435 3.78469 18.471 3.85287 18.5683C4.43474 19.3986 5.13853 20.1409 5.93904 20.7704C6.17029 20.9523 6.24155 21.2734 6.12675 21.5442C5.61706 22.7469 5.97135 23.2161 6.55379 23.4519C7.13624 23.6877 7.72626 23.6007 8.23596 22.3981C8.28564 22.2809 8.42018 22.2226 8.5384 22.2699C9.30283 22.5754 10.1125 22.7952 10.9547 22.917C11.1935 22.9515 11.3672 23.1638 11.3672 23.405C11.3672 24.7067 11.8783 25.0078 12.5087 25.0078C13.1391 25.0078 13.6502 24.7067 13.6502 23.405C13.6502 23.1628 13.8244 22.9495 14.064 22.9145C14.9018 22.7919 15.7072 22.5724 16.4678 22.268C16.5878 22.22 16.7243 22.2791 16.7747 22.3981C17.2844 23.6007 17.8745 23.6877 18.4569 23.4519C19.0393 23.2161 19.3936 22.7468 18.8839 21.5442C18.768 21.2706 18.8396 20.9462 19.073 20.7622C19.869 20.1346 20.569 19.3954 21.1482 18.569C21.217 18.4709 21.3453 18.4346 21.4564 18.4795C22.6869 18.9777 23.167 18.6314 23.4083 18.0622C23.6495 17.4929 23.5606 16.9162 22.3301 16.4181C22.315 16.412 22.3075 16.395 22.3134 16.3798C22.6619 15.4699 22.8818 14.4986 22.9514 13.4871C22.9659 13.2751 23.1477 13.1121 23.3601 13.1121C24.692 13.1121 25 12.6127 25 11.9965C25 11.3803 24.692 10.8809 23.3601 10.8809C23.0428 10.8809 22.7554 10.6701 22.6788 10.3622C22.4659 9.5069 22.1431 8.69366 21.7258 7.93756C21.7212 7.92932 21.7249 7.91895 21.7337 7.91543C22.9642 7.41728 23.0531 6.84062 22.8119 6.27137C22.5706 5.70212 22.0905 5.35585 20.86 5.854C20.5837 5.96587 20.262 5.90947 20.053 5.69693C19.7455 5.38433 19.4179 5.09078 19.0723 4.81826C18.8399 4.63507 18.7685 4.31213 18.8839 4.0397C19.3936 2.83706 19.0393 2.36781 18.4569 2.13201C17.8745 1.89622 17.2844 1.98319 16.7747 3.18583C16.7249 3.30348 16.5898 3.36192 16.4712 3.3144C15.853 3.06672 15.2052 2.87515 14.5344 2.74616ZM15.5718 10.174C16.5974 10.174 17.4288 9.47403 17.4288 8.61055C17.4288 7.74707 16.5974 7.04708 15.5718 7.04708C14.5463 7.04708 13.7149 7.74707 13.7149 8.61055C13.7149 9.47403 14.5463 10.174 15.5718 10.174ZM9.98468 9.21567C9.98468 10.0661 9.38364 10.7556 8.64222 10.7556C7.90079 10.7556 7.29975 10.0661 7.29975 9.21567C7.29975 8.36521 7.90079 7.67578 8.64222 7.67578C9.38364 7.67578 9.98468 8.36521 9.98468 9.21567ZM9.68487 17.0716C10.7815 17.0716 11.6704 16.2344 11.6704 15.2017C11.6704 14.169 10.7815 13.3319 9.68487 13.3319C8.58827 13.3319 7.69931 14.169 7.69931 15.2017C7.69931 16.2344 8.58827 17.0716 9.68487 17.0716ZM18.4559 14.1645C18.1544 14.6251 17.2582 14.5909 16.4542 14.0881C15.6501 13.5854 15.2427 12.8045 15.5441 12.344C15.8456 11.8834 16.7418 11.9176 17.5458 12.4204C18.3499 12.9231 18.7574 13.704 18.4559 14.1645ZM15.0007 17.0719C15.4357 17.0719 15.7885 16.7624 15.7885 16.3805C15.7885 15.9987 15.4357 15.6891 15.0007 15.6891C14.5656 15.6891 14.2129 15.9987 14.2129 16.3805C14.2129 16.7624 14.5656 17.0719 15.0007 17.0719Z" fill="#29A652"/>
</svg>
