<svg width="14" height="37" viewBox="0 0 14 37" fill="none" xmlns="http://www.w3.org/2000/svg">
<mask id="mask0_1165_2026" style="mask-type:alpha" maskUnits="userSpaceOnUse" x="0" y="0" width="14" height="37">
<rect x="0.5" y="0.00378418" width="13" height="36" fill="#D9D9D9"/>
</mask>
<g mask="url(#mask0_1165_2026)">
<path d="M13.3314 1.32556L2.33147 3.86401C1.99117 3.94254 1.75012 4.24556 1.75012 4.59481V21.2184C1.75012 21.4077 1.8217 21.59 1.95052 21.7287L12.9504 33.5749C13.2471 33.8944 13.7529 33.8944 14.0496 33.5749L25.0496 21.7287L25.9656 22.5793L25.0496 21.7287C25.1784 21.59 25.25 21.4077 25.25 21.2184V4.59481C25.25 4.24557 25.0089 3.94255 24.6686 3.86402L13.6686 1.32555C13.5577 1.29995 13.4423 1.29995 13.3314 1.32556Z" fill="#737373" fill-opacity="0.5" stroke="#8C8C8C" stroke-width="2.5"/>
<path d="M6 9.00378H21L13.5 24.0038L6 9.00378Z" fill="#8C8C8C"/>
</g>
</svg>
