<svg width="25" height="24" viewBox="0 0 25 24" fill="none" xmlns="http://www.w3.org/2000/svg">
<g clip-path="url(#clip0_3825_15063)">
<path d="M8.02505 0.980848C6.99028 0.990551 6.15131 1.40919 5.48358 2.09563C4.69585 2.90535 4.17052 4.10713 4.01002 5.42075C3.68906 8.0481 4.7858 11.0436 7.85817 12.2938L7.52855 13.1053C4.52255 11.8821 3.15628 9.13236 3.08564 6.49597C2.27189 7.00532 1.79152 7.76394 1.56956 8.67271C1.30106 9.77183 1.44174 11.0886 1.94016 12.3216C2.93691 14.7877 5.28563 16.8618 8.42935 16.4276L8.54949 17.2962C6.26222 17.6121 4.32216 16.7536 2.92885 15.3729C2.54672 16.1331 2.5771 16.8853 2.89805 17.6376C3.29517 18.5682 4.18702 19.4775 5.37656 20.1498C7.58367 21.3971 10.7578 21.8164 13.4948 20.3886C13.2403 19.4046 13.3705 18.2757 14.0265 17.1395C15.091 15.2958 16.8756 14.8037 18.1691 15.326C18.8159 15.5872 19.3447 16.102 19.5695 16.7865C19.7943 17.4709 19.7024 18.3007 19.2238 19.1449C18.6706 20.1203 17.6233 20.4516 16.8214 20.1864C16.4205 20.0538 16.0611 19.7441 15.9367 19.3016C15.8123 18.8591 15.93 18.347 16.2677 17.8338L16.9987 18.3158C16.7532 18.6887 16.7409 18.9289 16.7789 19.0642C16.817 19.1996 16.912 19.2937 17.0953 19.3543C17.4619 19.4756 18.1023 19.3472 18.462 18.7127C18.8459 18.0358 18.8755 17.4853 18.7359 17.0603C18.5964 16.6354 18.2744 16.3125 17.841 16.1375C16.9741 15.7875 15.6782 16.031 14.7853 17.5775C14.1279 18.7161 14.1116 19.7045 14.4703 20.5511L14.6022 20.7561C14.593 20.7622 14.5836 20.7679 14.5744 20.7738C14.5864 20.7971 14.5984 20.821 14.6109 20.8441C14.7021 21.0112 14.8087 21.1725 14.9303 21.326C14.935 21.3321 14.9402 21.3377 14.945 21.3436C14.9635 21.3666 14.9829 21.3898 15.0022 21.4124C15.5416 22.0526 16.3314 22.5552 17.2199 22.832C18.3571 23.1862 19.6385 23.1669 20.7282 22.6562C21.8179 22.1454 22.7408 21.1575 23.198 19.4511C23.3538 18.8696 23.4361 18.3366 23.4558 17.8427C23.4563 17.8231 23.4569 17.8037 23.4572 17.7841C23.4613 17.545 23.4531 17.3038 23.4308 17.0619C23.4291 17.0428 23.4269 17.0238 23.425 17.0047C23.4235 16.9921 23.4222 16.9792 23.4206 16.9666C23.2662 15.7577 22.6789 14.8029 21.8107 13.9461C20.4216 12.5755 18.2624 11.5256 16.0568 10.4715C13.8512 9.41746 11.5984 8.35747 10.0158 6.83141C8.53064 5.39924 7.6755 3.49461 8.12611 0.980754C8.09236 0.980286 8.05842 0.980473 8.02505 0.980754V0.980848Z" fill="#B5B77A"/>
</g>
<defs>
<clipPath id="clip0_3825_15063">
<rect width="24" height="24" fill="white" transform="translate(0.5)"/>
</clipPath>
</defs>
</svg>
